<svg xmlns="http://www.w3.org/2000/svg" viewBox="0 0 1024 1024"><path d="M 588.85,90.30 C 588.85,90.29 588.85,90.29 588.85,90.29 C 588.85,90.28 588.84,90.28 588.84,90.28 C 588.84,90.27 588.84,90.27 588.84,90.26 C 588.84,90.26 588.83,90.26 588.83,90.25 C 588.83,90.25 588.83,90.25 588.83,90.24 C 588.83,90.24 588.82,90.23 588.82,90.23 C 588.82,90.23 588.82,90.22 588.82,90.22 C 588.82,90.22 588.82,90.21 588.82,90.21 C 588.81,90.21 588.81,90.20 588.81,90.20 C 588.81,90.20 588.81,90.19 588.81,90.19 C 588.81,90.19 588.81,90.18 588.81,90.18 C 588.81,90.18 588.81,90.17 588.80,90.17 C 588.80,90.17 588.80,90.16 588.80,90.16 C 588.80,90.16 588.80,90.15 588.80,90.15 C 588.80,90.15 588.80,90.15 588.80,90.14 C 588.80,90.14 588.80,90.14 588.80,90.13 C 588.80,90.13 588.80,90.13 588.80,90.12 C 588.80,90.12 588.80,90.12 588.80,90.12 C 588.80,90.11 588.80,90.11 588.80,90.11 C 588.80,90.10 588.80,90.10 588.80,90.10 C 588.80,90.10 588.80,90.09 588.80,90.09 C 588.80,90.09 588.80,90.09 588.80,90.08 C 588.80,90.08 588.80,90.08 588.80,90.07 C 588.80,90.07 588.80,90.07 588.80,90.07 C 588.80,90.06 588.80,90.06 588.80,90.06 C 588.80,90.06 588.80,90.05 588.80,90.05 C 588.80,90.05 588.80,90.05 588.80,90.05 C 588.81,90.04 588.81,90.04 588.81,90.04 C 588.81,90.04 588.81,90.03 588.81,90.03 C 588.81,90.03 588.81,90.03 588.81,90.03 C 588.81,90.02 588.81,90.02 588.81,90.02 C 588.82,90.02 588.82,90.01 588.82,90.01 C 588.82,90.01 588.82,90.01 588.82,90.01 C 588.82,90.00 588.82,90.00 588.82,90.00 C 588.82,90.00 588.83,90.00 588.83,90.00 C 588.83,89.99 588.83,89.99 588.83,89.99 C 588.83,89.99 588.83,89.99 588.83,89.98 C 588.84,89.98 588.84,89.98 588.84,89.98 C 588.84,89.98 588.84,89.98 588.84,89.97 C 588.84,89.97 588.85,89.97 588.85,89.97 C 588.85,89.97 588.85,89.97 588.85,89.96 C 588.85,89.96 588.85,89.96 588.86,89.96 C 588.86,89.96 588.86,89.96 588.86,89.96 C 588.86,89.95 588.86,89.95 588.87,89.95 C 588.87,89.95 588.87,89.95 588.87,89.95 C 588.87,89.95 588.87,89.95 588.88,89.94 C 588.88,89.94 588.88,89.94 588.88,89.94 C 588.88,89.94 588.88,89.94 588.89,89.94 C 588.89,89.94 588.89,89.94 588.89,89.93 C 588.89,89.93 588.90,89.93 588.90,89.93 C 588.90,89.93 588.90,89.93 588.90,89.93 C 588.91,89.93 588.91,89.93 588.91,89.93 C 588.91,89.93 588.91,89.92 588.92,89.92 C 588.92,89.92 588.92,89.92 588.92,89.92 C 588.92,89.92 588.93,89.92 588.93,89.92 C 588.93,89.92 588.93,89.92 588.93,89.92 C 588.94,89.92 588.94,89.92 588.94,89.92 C 588.94,89.91 588.94,89.91 588.95,89.91 C 588.95,89.91 588.95,89.91 588.95,89.91 C 588.95,89.91 588.96,89.91 588.96,89.91 C 588.96,89.91 588.96,89.91 588.96,89.91 C 588.97,89.91 588.97,89.91 588.97,89.91 C 588.97,89.91 588.98,89.91 588.98,89.91 C 588.98,89.91 588.98,89.91 588.98,89.91 C 588.99,89.91 588.99,89.91 588.99,89.91 C 588.99,89.91 588.99,89.91 589.00,89.91 C 589.00,89.91 589.00,89.91 589.00,89.91 C 589.01,89.91 589.01,89.91 589.01,89.91 C 589.01,89.91 589.01,89.91 589.02,89.91 C 589.02,89.91 589.02,89.91 589.02,89.91 C 589.02,89.91 589.03,89.91 589.03,89.91 C 589.03,89.91 589.03,89.91 589.04,89.91 C 589.04,89.91 589.04,89.91 589.04,89.91 C 589.04,89.91 589.05,89.91 589.05,89.91 C 589.05,89.91 589.05,89.91 589.05,89.91 C 589.06,89.91 589.06,89.91 589.06,89.92 C 589.06,89.92 589.06,89.92 589.07,89.92 C 589.07,89.92 589.07,89.92 589.07,89.92 C 589.07,89.92 589.08,89.92 589.08,89.92 C 589.08,89.92 589.08,89.92 589.08,89.92 C 589.09,89.92 589.09,89.93 589.09,89.93 C 589.09,89.93 589.09,89.93 589.10,89.93 C 589.10,89.93 589.10,89.93 589.10,89.93 C 589.10,89.93 589.11,89.93 589.11,89.93 C 589.11,89.94 589.11,89.94 589.11,89.94 C 589.12,89.94 589.12,89.94 589.12,89.94 C 589.12,89.94 589.12,89.94 589.12,89.94 C 589.13,89.95 589.13,89.95 589.13,89.95 C 589.13,89.95 589.13,89.95 589.13,89.95 C 589.14,89.95 589.14,89.95 589.14,89.96 C 589.14,89.96 589.14,89.96 589.14,89.96 C 589.15,89.96 589.15,89.96 589.15,89.96 C 589.15,89.97 589.15,89.97 589.15,89.97 C 589.15,89.97 589.16,89.97 589.16,89.97 C 589.16,89.98 589.16,89.98 589.16,89.98 C 589.16,89.98 589.16,89.98 589.17,89.98 C 589.17,89.99 589.17,89.99 589.17,89.99 C 589.17,89.99 589.17,89.99 589.17,90.00 C 589.17,90.00 589.18,90.00 589.18,90.00 C 589.18,90.00 589.18,90.00 589.18,90.01 C 589.18,90.01 589.18,90.01 589.18,90.01 C 589.18,90.01 589.18,90.02 589.19,90.02 C 589.19,90.02 589.19,90.02 589.19,90.03 C 589.19,90.03 589.19,90.03 589.19,90.03 C 589.19,90.03 589.19,90.04 589.19,90.04 C 589.19,90.04 589.19,90.04 589.20,90.05 C 589.20,90.05 589.20,90.05 589.20,90.05 C 589.20,90.05 589.20,90.06 589.20,90.06 C 589.20,90.06 589.20,90.06 589.20,90.07 C 589.20,90.07 589.20,90.07 589.20,90.07 C 589.20,90.08 589.20,90.08 589.20,90.08 C 589.20,90.09 589.20,90.09 589.20,90.09 C 589.20,90.09 589.20,90.10 589.20,90.10 C 589.20,90.10 589.20,90.10 589.20,90.11 C 589.20,90.11 589.20,90.11 589.20,90.12 C 589.20,90.12 589.20,90.12 589.20,90.12 C 589.20,90.13 589.20,90.13 589.20,90.13 C 589.20,90.14 589.20,90.14 589.20,90.14 C 589.20,90.15 589.20,90.15 589.20,90.15 C 589.20,90.15 589.20,90.16 589.20,90.16 C 589.20,90.16 589.20,90.17 589.20,90.17 C 589.19,90.17 589.19,90.18 589.19,90.18 C 589.19,90.18 589.19,90.19 589.19,90.19 C 589.19,90.19 589.19,90.20 589.19,90.20 C 589.19,90.20 589.19,90.21 589.18,90.21 C 589.18,90.21 589.18,90.22 589.18,90.22 C 589.18,90.22 589.18,90.23 589.18,90.23 C 589.18,90.23 589.17,90.24 589.17,90.24 C 589.17,90.25 589.17,90.25 589.17,90.25 C 589.17,90.26 589.16,90.26 589.16,90.26 C 589.16,90.27 589.16,90.27 589.16,90.28 C 589.16,90.28 589.15,90.28 589.15,90.29 C 589.15,90.29 589.15,90.29 589.15,90.30  Z" fill="#000000"/><path d="M 526.91,300.91 C 526.11,300.95 525.31,300.98 524.51,300.98 C 523.71,300.96 522.92,300.93 522.12,300.88 C 521.33,300.81 520.53,300.73 519.74,300.63 C 518.95,300.51 518.17,300.38 517.38,300.24 C 516.60,300.08 515.82,299.90 515.04,299.71 C 514.27,299.51 513.50,299.30 512.73,299.07 C 511.96,298.84 511.20,298.59 510.44,298.33 C 509.68,298.05 508.93,297.77 508.18,297.48 C 507.43,297.18 506.69,296.87 505.95,296.55 C 505.22,296.22 504.49,295.89 503.77,295.54 C 503.05,295.19 502.33,294.82 501.62,294.45 C 500.92,294.07 500.22,293.67 499.52,293.27 C 498.83,292.86 498.15,292.44 497.47,292.02 C 496.80,291.58 496.14,291.13 495.48,290.67 C 494.82,290.21 494.18,289.73 493.54,289.25 C 492.90,288.75 492.27,288.25 491.66,287.74 C 491.04,287.21 490.44,286.68 489.84,286.14 C 489.25,285.59 488.67,285.03 488.09,284.46 C 487.53,283.88 486.97,283.30 486.42,282.70 C 485.88,282.10 485.35,281.49 484.82,280.87 C 484.31,280.24 483.81,279.61 483.31,278.97 C 482.83,278.32 482.35,277.67 481.89,277.00 C 481.43,276.33 480.99,275.66 480.56,274.98 C 480.13,274.29 479.72,273.60 479.32,272.90 C 478.93,272.19 478.55,271.48 478.19,270.76 C 477.83,270.04 477.49,269.32 477.16,268.58 C 476.84,267.85 476.54,267.11 476.25,266.36 C 475.97,265.61 475.70,264.86 475.45,264.10 C 475.21,263.34 474.98,262.58 474.77,261.81 C 474.57,261.04 474.39,260.27 474.22,259.49 C 474.06,258.71 473.92,257.93 473.79,257.15 C 473.68,256.36 473.59,255.57 473.50,254.78 C 473.44,253.99 473.39,253.20 473.35,252.40 C 473.34,251.61 473.33,250.81 473.34,250.02 C 473.37,249.22 473.41,248.42 473.46,247.62 C 473.53,246.82 473.61,246.03 473.70,245.23 C 473.81,244.43 473.93,243.63 474.07,242.84 C 474.21,242.05 474.37,241.25 474.54,240.46 C 474.73,239.67 474.92,238.89 475.13,238.10 C 475.35,237.32 475.58,236.54 475.82,235.76 C 476.07,234.99 476.33,234.22 476.60,233.45 C 476.88,232.68 477.17,231.92 477.47,231.17 C 477.78,230.41 478.10,229.66 478.43,228.92 C 478.77,228.18 479.12,227.45 479.48,226.72 C 479.84,226.00 480.22,225.28 480.61,224.57 C 481.01,223.87 481.41,223.17 481.83,222.48 C 482.26,221.80 482.70,221.12 483.15,220.45 C 483.60,219.79 484.07,219.14 484.55,218.49 C 485.04,217.86 485.54,217.23 486.04,216.62 C 486.56,216.01 487.09,215.41 487.63,214.82 C 488.18,214.24 488.74,213.67 489.31,213.12 C 489.89,212.57 490.48,212.03 491.08,211.50 C 491.68,210.98 492.30,210.48 492.92,209.98 C 493.56,209.49 494.20,209.02 494.85,208.55 C 495.50,208.10 496.17,207.65 496.84,207.22 C 497.52,206.79 498.20,206.38 498.90,205.98 C 499.59,205.59 500.30,205.21 501.01,204.84 C 501.73,204.48 502.45,204.14 503.18,203.80 C 503.92,203.48 504.66,203.16 505.40,202.86 C 506.15,202.57 506.91,202.29 507.67,202.02 C 508.43,201.77 509.20,201.52 509.97,201.29 C 510.75,201.06 511.52,200.85 512.31,200.66 C 513.09,200.47 513.88,200.29 514.67,200.13 C 515.46,199.98 516.26,199.84 517.06,199.71 C 517.86,199.60 518.66,199.50 519.46,199.41 C 520.27,199.33 521.07,199.26 521.88,199.21 C 522.68,199.16 523.49,199.14 524.30,199.12 C 525.11,199.11 525.92,199.12 526.73,199.14 C 527.53,199.17 528.34,199.21 529.15,199.26 C 529.95,199.33 530.76,199.40 531.56,199.49 C 532.36,199.58 533.16,199.69 533.96,199.81 C 534.75,199.93 535.54,200.07 536.33,200.22 C 537.12,200.38 537.91,200.55 538.69,200.73 C 539.46,200.93 540.24,201.14 541.00,201.36 C 541.77,201.59 542.53,201.84 543.28,202.10 C 544.03,202.38 544.77,202.67 545.50,202.98 C 546.23,203.31 546.95,203.64 547.67,204.00 C 548.38,204.36 549.08,204.74 549.78,205.14 C 550.47,205.55 551.15,205.97 551.83,206.40 C 552.50,206.84 553.16,207.30 553.81,207.77 C 554.46,208.25 555.10,208.73 555.73,209.23 C 556.36,209.74 556.97,210.26 557.58,210.79 C 558.19,211.32 558.78,211.87 559.37,212.42 C 559.95,212.98 560.52,213.55 561.08,214.12 C 561.64,214.70 562.18,215.29 562.72,215.88 C 563.25,216.48 563.77,217.09 564.29,217.71 C 564.79,218.33 565.29,218.95 565.77,219.59 C 566.25,220.23 566.72,220.88 567.18,221.53 C 567.63,222.19 568.07,222.86 568.50,223.53 C 568.92,224.21 569.33,224.90 569.73,225.59 C 570.12,226.29 570.51,226.99 570.88,227.70 C 571.24,228.42 571.59,229.14 571.93,229.86 C 572.26,230.60 572.58,231.34 572.88,232.08 C 573.18,232.83 573.47,233.58 573.74,234.34 C 574.00,235.10 574.25,235.86 574.49,236.63 C 574.71,237.40 574.93,238.18 575.13,238.96 C 575.32,239.74 575.49,240.53 575.65,241.31 C 575.80,242.10 575.94,242.89 576.06,243.69 C 576.16,244.48 576.26,245.28 576.34,246.08 C 576.40,246.87 576.45,247.67 576.49,248.47 C 576.51,249.27 576.52,250.07 576.51,250.87 C 576.49,251.67 576.46,252.47 576.41,253.27 C 576.34,254.07 576.26,254.86 576.17,255.66 C 576.07,256.45 575.95,257.24 575.82,258.03 C 575.67,258.82 575.51,259.61 575.34,260.39 C 575.15,261.17 574.95,261.94 574.74,262.72 C 574.52,263.49 574.28,264.25 574.03,265.02 C 573.77,265.77 573.50,266.53 573.21,267.28 C 572.91,268.02 572.60,268.76 572.28,269.49 C 571.94,270.22 571.60,270.95 571.24,271.66 C 570.87,272.37 570.49,273.08 570.10,273.78 C 569.69,274.48 569.28,275.16 568.86,275.85 C 568.42,276.52 567.98,277.19 567.52,277.85 C 567.06,278.51 566.59,279.16 566.10,279.81 C 565.61,280.44 565.11,281.07 564.60,281.70 C 564.08,282.31 563.55,282.92 563.01,283.52 C 562.47,284.12 561.92,284.70 561.36,285.29 C 560.79,285.86 560.21,286.42 559.63,286.98 C 559.04,287.53 558.44,288.07 557.83,288.60 C 557.22,289.12 556.60,289.64 555.97,290.14 C 555.33,290.63 554.69,291.12 554.04,291.59 C 553.38,292.06 552.72,292.51 552.05,292.95 C 551.37,293.39 550.69,293.81 550.00,294.22 C 549.30,294.62 548.59,295.00 547.88,295.38 C 547.17,295.74 546.44,296.09 545.71,296.42 C 544.98,296.75 544.23,297.06 543.49,297.36 C 542.73,297.64 541.98,297.92 541.22,298.18 C 540.45,298.43 539.68,298.67 538.91,298.90 C 538.13,299.11 537.35,299.32 536.57,299.51 C 535.79,299.69 535.00,299.86 534.22,300.02 C 533.43,300.17 532.64,300.30 531.85,300.43 C 531.06,300.54 530.27,300.65 529.49,300.74 C 528.70,300.83 527.91,300.90 527.13,300.97  Z" fill="#000000"/><path d="M 489.80,674.31 C 485.16,673.59 480.55,672.58 476.32,670.31 C 472.31,667.70 469.21,664.12 466.71,660.06 C 465.30,655.51 464.37,650.86 463.49,646.21 C 462.48,641.58 462.10,636.83 461.46,632.13 C 460.47,627.50 459.52,622.86 458.87,618.16 C 457.97,613.50 457.33,608.80 456.41,604.15 C 455.49,599.51 454.59,594.86 453.69,590.20 C 452.54,585.59 451.35,580.99 450.24,576.37 C 448.77,571.84 447.30,567.29 445.62,562.83 C 443.92,558.36 441.36,554.34 438.74,550.35 C 435.39,546.92 431.84,543.73 428.20,540.66 C 424.41,537.86 420.80,536.30 420.41,541.15 C 419.54,545.81 418.68,550.46 418.53,555.25 C 417.50,559.87 416.65,564.53 416.39,569.31 C 415.51,573.96 414.63,578.61 414.37,583.38 C 413.49,588.03 412.61,592.69 412.51,597.49 C 411.46,602.10 410.89,606.82 410.52,611.58 C 409.55,616.26 406.65,617.23 402.98,614.17 C 399.47,610.91 395.60,608.14 392.22,604.71 C 388.37,601.92 384.99,598.48 381.61,595.06 C 377.77,592.25 374.35,588.87 370.98,585.45 C 367.54,582.08 364.27,578.59 361.97,574.40 C 360.60,569.84 359.28,565.27 357.79,560.74 C 356.57,556.14 355.03,551.62 353.54,547.09 C 352.01,542.56 350.90,537.94 349.07,533.52 C 347.80,528.95 346.31,524.41 344.79,519.89 C 343.29,515.36 341.78,510.83 340.26,506.30 C 338.77,501.77 337.24,497.24 335.80,492.70 C 334.53,488.12 333.27,483.53 332.10,478.93 C 330.90,474.33 330.04,469.66 329.37,464.97 C 328.44,460.33 327.52,455.68 327.52,450.87 C 327.45,446.06 327.25,441.44 327.51,436.66 C 327.49,431.85 327.52,427.05 327.46,422.23 C 328.51,417.61 328.68,412.82 329.46,408.15 C 330.28,403.49 331.16,398.83 332.29,394.22 C 333.64,389.65 334.84,385.05 336.35,380.53 C 337.80,375.98 339.49,371.52 341.26,367.08 C 343.03,362.65 345.07,358.31 347.26,354.04 C 349.77,349.98 351.89,345.67 354.42,341.63 C 356.94,337.58 359.67,333.68 362.30,329.71 C 365.41,326.08 368.20,322.23 371.37,318.65 C 374.45,315.01 377.88,311.64 381.26,308.23 C 384.67,304.84 388.24,301.66 391.85,298.54 C 395.66,295.69 399.31,292.62 403.29,289.99 C 407.23,287.31 411.38,284.93 415.47,282.45 C 419.85,280.55 424.29,278.78 428.81,277.26 C 433.34,275.77 437.95,274.63 442.69,274.16 C 447.32,273.77 451.93,274.45 456.70,274.79 C 461.24,276.22 465.66,278.05 469.93,280.24 C 473.78,283.04 477.56,285.95 480.40,289.77 C 483.29,293.57 485.62,297.75 488.04,301.87 C 490.30,306.09 492.48,310.36 494.99,314.42 C 497.09,318.74 499.46,322.84 501.76,326.97 C 503.87,331.29 506.04,335.57 508.32,339.78 C 510.75,343.89 512.83,348.22 515.00,352.50 C 517.28,356.71 519.72,360.82 521.80,365.15 C 524.06,369.37 527.85,372.17 532.63,372.47 C 537.25,373.48 541.99,373.89 546.70,374.46 C 551.33,375.45 556.09,375.81 560.78,376.48 C 565.43,377.33 570.21,377.60 574.84,378.55 C 579.57,379.03 584.31,379.47 588.93,380.48 C 593.59,381.33 598.26,382.20 602.67,384.05 C 606.86,386.37 610.69,389.19 614.06,392.62 C 616.64,396.61 618.14,401.17 620.00,405.28 C 624.07,407.85 627.36,411.28 630.26,415.07 C 632.39,419.36 634.14,423.79 634.52,428.55 C 634.50,433.36 634.50,438.16 634.50,442.97 C 634.50,447.78 634.50,452.58 634.50,457.39 C 634.50,462.20 634.50,467.00 634.50,471.81 C 634.50,476.61 634.50,481.42 634.50,486.23 C 634.50,491.03 634.50,495.84 634.50,500.65 C 634.50,505.45 634.50,510.26 634.50,515.07 C 634.50,519.87 634.50,524.68 634.50,529.49 C 634.50,534.29 634.50,539.10 634.50,543.90 C 634.50,548.71 634.50,553.52 634.50,558.32 C 634.50,563.13 634.50,567.94 634.50,572.74 C 634.50,577.55 634.50,582.36 634.49,587.16 C 634.49,591.96 634.53,596.79 632.90,601.11 C 629.28,604.22 625.90,607.64 622.38,610.85 C 618.64,613.94 616.50,612.61 616.49,607.72 C 616.50,602.93 616.50,598.13 616.50,593.33 C 616.50,588.52 616.50,583.71 616.50,578.91 C 616.50,574.10 616.50,569.29 616.50,564.48 C 616.50,559.68 616.50,554.87 616.50,550.06 C 616.50,545.26 616.50,540.45 616.50,535.65 C 616.50,530.84 616.50,526.03 616.50,521.23 C 616.50,516.42 616.50,511.62 616.50,506.81 C 616.50,502.00 616.50,497.20 616.50,492.39 C 616.50,487.58 616.50,482.77 616.50,477.97 C 616.50,473.16 616.50,468.36 616.50,463.55 C 616.51,458.74 616.51,453.94 616.50,449.13 C 616.48,444.33 616.49,439.52 616.55,434.70 C 615.90,430.00 613.96,425.65 611.20,421.76 C 607.66,418.59 603.30,416.58 598.70,415.44 C 593.93,415.87 589.50,417.55 585.52,420.18 C 582.65,423.93 580.19,428.02 579.26,432.68 C 578.50,437.36 577.62,442.01 575.26,446.17 C 571.19,448.40 566.33,448.29 562.58,445.65 C 560.66,441.27 559.89,436.67 560.43,432.10 C 560.74,427.34 562.79,422.99 565.04,418.72 C 563.58,416.44 558.72,416.52 553.93,416.49 C 549.12,416.50 544.32,416.39 539.75,416.03 C 535.04,415.45 530.22,415.52 525.42,415.47 C 520.61,415.50 515.98,414.47 511.27,413.92 C 506.66,412.76 502.26,410.89 498.23,408.33 C 494.60,405.22 491.56,401.53 488.51,397.87 C 485.69,394.04 482.80,390.25 479.96,386.43 C 477.08,382.64 474.26,378.80 471.44,374.96 C 468.59,371.16 465.06,368.02 462.16,371.48 C 459.89,375.68 457.77,379.99 455.60,384.27 C 453.48,388.58 451.78,393.04 450.33,397.59 C 448.60,402.02 447.47,406.64 446.33,411.25 C 445.13,415.84 444.41,420.53 443.43,425.16 C 443.16,429.93 442.47,434.61 442.47,439.44 C 442.70,444.20 444.49,448.61 446.94,452.72 C 449.90,456.47 453.70,459.35 457.13,462.70 C 460.84,465.68 464.44,468.83 468.21,471.73 C 471.89,474.75 475.49,477.90 479.27,480.78 C 482.68,484.17 486.08,487.57 489.31,491.10 C 492.14,494.94 494.32,499.19 496.53,503.46 C 498.15,507.96 499.67,512.48 500.68,517.12 C 501.64,521.76 502.51,526.41 503.47,531.05 C 504.10,535.76 504.46,540.50 504.91,545.23 C 505.59,549.92 505.77,554.70 506.56,559.37 C 506.62,564.17 507.52,568.82 507.46,573.64 C 508.26,578.30 508.52,583.07 508.55,587.88 C 509.53,592.51 509.50,597.32 509.86,602.07 C 510.50,606.76 510.51,611.57 510.93,616.30 C 511.54,621.01 511.45,625.83 511.97,630.55 C 512.51,635.26 512.52,640.06 513.15,644.77 C 513.52,649.51 513.05,654.24 512.23,658.92 C 510.16,663.25 507.45,667.15 503.66,670.10 C 499.40,672.08 494.84,673.48 490.21,674.29  Z" fill="#000000"/><path d="M 746.85,334.30 C 746.85,334.29 746.85,334.29 746.85,334.29 C 746.85,334.28 746.84,334.28 746.84,334.28 C 746.84,334.27 746.84,334.27 746.84,334.26 C 746.84,334.26 746.83,334.26 746.83,334.25 C 746.83,334.25 746.83,334.25 746.83,334.24 C 746.83,334.24 746.82,334.23 746.82,334.23 C 746.82,334.23 746.82,334.22 746.82,334.22 C 746.82,334.22 746.82,334.21 746.82,334.21 C 746.81,334.21 746.81,334.20 746.81,334.20 C 746.81,334.20 746.81,334.19 746.81,334.19 C 746.81,334.19 746.81,334.18 746.81,334.18 C 746.81,334.18 746.81,334.17 746.80,334.17 C 746.80,334.17 746.80,334.16 746.80,334.16 C 746.80,334.16 746.80,334.15 746.80,334.15 C 746.80,334.15 746.80,334.15 746.80,334.14 C 746.80,334.14 746.80,334.14 746.80,334.13 C 746.80,334.13 746.80,334.13 746.80,334.12 C 746.80,334.12 746.80,334.12 746.80,334.12 C 746.80,334.11 746.80,334.11 746.80,334.11 C 746.80,334.10 746.80,334.10 746.80,334.10 C 746.80,334.10 746.80,334.09 746.80,334.09 C 746.80,334.09 746.80,334.09 746.80,334.08 C 746.80,334.08 746.80,334.08 746.80,334.07 C 746.80,334.07 746.80,334.07 746.80,334.07 C 746.80,334.06 746.80,334.06 746.80,334.06 C 746.80,334.06 746.80,334.05 746.80,334.05 C 746.80,334.05 746.80,334.05 746.80,334.05 C 746.81,334.04 746.81,334.04 746.81,334.04 C 746.81,334.04 746.81,334.03 746.81,334.03 C 746.81,334.03 746.81,334.03 746.81,334.03 C 746.81,334.02 746.81,334.02 746.81,334.02 C 746.82,334.02 746.82,334.01 746.82,334.01 C 746.82,334.01 746.82,334.01 746.82,334.01 C 746.82,334.00 746.82,334.00 746.82,334.00 C 746.82,334.00 746.83,334.00 746.83,334.00 C 746.83,333.99 746.83,333.99 746.83,333.99 C 746.83,333.99 746.83,333.99 746.83,333.98 C 746.84,333.98 746.84,333.98 746.84,333.98 C 746.84,333.98 746.84,333.98 746.84,333.97 C 746.84,333.97 746.85,333.97 746.85,333.97 C 746.85,333.97 746.85,333.97 746.85,333.96 C 746.85,333.96 746.85,333.96 746.86,333.96 C 746.86,333.96 746.86,333.96 746.86,333.96 C 746.86,333.95 746.86,333.95 746.87,333.95 C 746.87,333.95 746.87,333.95 746.87,333.95 C 746.87,333.95 746.87,333.95 746.88,333.94 C 746.88,333.94 746.88,333.94 746.88,333.94 C 746.88,333.94 746.88,333.94 746.89,333.94 C 746.89,333.94 746.89,333.94 746.89,333.93 C 746.89,333.93 746.90,333.93 746.90,333.93 C 746.90,333.93 746.90,333.93 746.90,333.93 C 746.91,333.93 746.91,333.93 746.91,333.93 C 746.91,333.93 746.91,333.92 746.92,333.92 C 746.92,333.92 746.92,333.92 746.92,333.92 C 746.92,333.92 746.93,333.92 746.93,333.92 C 746.93,333.92 746.93,333.92 746.93,333.92 C 746.94,333.92 746.94,333.92 746.94,333.92 C 746.94,333.91 746.94,333.91 746.95,333.91 C 746.95,333.91 746.95,333.91 746.95,333.91 C 746.95,333.91 746.96,333.91 746.96,333.91 C 746.96,333.91 746.96,333.91 746.96,333.91 C 746.97,333.91 746.97,333.91 746.97,333.91 C 746.97,333.91 746.98,333.91 746.98,333.91 C 746.98,333.91 746.98,333.91 746.98,333.91 C 746.99,333.91 746.99,333.91 746.99,333.91 C 746.99,333.91 746.99,333.91 747.00,333.91 C 747.00,333.91 747.00,333.91 747.00,333.91 C 747.01,333.91 747.01,333.91 747.01,333.91 C 747.01,333.91 747.01,333.91 747.02,333.91 C 747.02,333.91 747.02,333.91 747.02,333.91 C 747.02,333.91 747.03,333.91 747.03,333.91 C 747.03,333.91 747.03,333.91 747.04,333.91 C 747.04,333.91 747.04,333.91 747.04,333.91 C 747.04,333.91 747.05,333.91 747.05,333.91 C 747.05,333.91 747.05,333.91 747.05,333.91 C 747.06,333.91 747.06,333.91 747.06,333.92 C 747.06,333.92 747.06,333.92 747.07,333.92 C 747.07,333.92 747.07,333.92 747.07,333.92 C 747.07,333.92 747.08,333.92 747.08,333.92 C 747.08,333.92 747.08,333.92 747.08,333.92 C 747.09,333.92 747.09,333.93 747.09,333.93 C 747.09,333.93 747.09,333.93 747.10,333.93 C 747.10,333.93 747.10,333.93 747.10,333.93 C 747.10,333.93 747.11,333.93 747.11,333.93 C 747.11,333.94 747.11,333.94 747.11,333.94 C 747.12,333.94 747.12,333.94 747.12,333.94 C 747.12,333.94 747.12,333.94 747.12,333.94 C 747.13,333.95 747.13,333.95 747.13,333.95 C 747.13,333.95 747.13,333.95 747.13,333.95 C 747.14,333.95 747.14,333.95 747.14,333.96 C 747.14,333.96 747.14,333.96 747.14,333.96 C 747.15,333.96 747.15,333.96 747.15,333.96 C 747.15,333.97 747.15,333.97 747.15,333.97 C 747.15,333.97 747.16,333.97 747.16,333.97 C 747.16,333.98 747.16,333.98 747.16,333.98 C 747.16,333.98 747.16,333.98 747.17,333.98 C 747.17,333.99 747.17,333.99 747.17,333.99 C 747.17,333.99 747.17,333.99 747.17,334.00 C 747.17,334.00 747.18,334.00 747.18,334.00 C 747.18,334.00 747.18,334.00 747.18,334.01 C 747.18,334.01 747.18,334.01 747.18,334.01 C 747.18,334.01 747.18,334.02 747.19,334.02 C 747.19,334.02 747.19,334.02 747.19,334.03 C 747.19,334.03 747.19,334.03 747.19,334.03 C 747.19,334.03 747.19,334.04 747.19,334.04 C 747.19,334.04 747.19,334.04 747.20,334.05 C 747.20,334.05 747.20,334.05 747.20,334.05 C 747.20,334.05 747.20,334.06 747.20,334.06 C 747.20,334.06 747.20,334.06 747.20,334.07 C 747.20,334.07 747.20,334.07 747.20,334.07 C 747.20,334.08 747.20,334.08 747.20,334.08 C 747.20,334.09 747.20,334.09 747.20,334.09 C 747.20,334.09 747.20,334.10 747.20,334.10 C 747.20,334.10 747.20,334.10 747.20,334.11 C 747.20,334.11 747.20,334.11 747.20,334.12 C 747.20,334.12 747.20,334.12 747.20,334.12 C 747.20,334.13 747.20,334.13 747.20,334.13 C 747.20,334.14 747.20,334.14 747.20,334.14 C 747.20,334.15 747.20,334.15 747.20,334.15 C 747.20,334.15 747.20,334.16 747.20,334.16 C 747.20,334.16 747.20,334.17 747.20,334.17 C 747.19,334.17 747.19,334.18 747.19,334.18 C 747.19,334.18 747.19,334.19 747.19,334.19 C 747.19,334.19 747.19,334.20 747.19,334.20 C 747.19,334.20 747.19,334.21 747.18,334.21 C 747.18,334.21 747.18,334.22 747.18,334.22 C 747.18,334.22 747.18,334.23 747.18,334.23 C 747.18,334.23 747.17,334.24 747.17,334.24 C 747.17,334.25 747.17,334.25 747.17,334.25 C 747.17,334.26 747.16,334.26 747.16,334.26 C 747.16,334.27 747.16,334.27 747.16,334.28 C 747.16,334.28 747.15,334.28 747.15,334.29 C 747.15,334.29 747.15,334.29 747.15,334.30  Z" fill="#000000"/><path d="M 486.58,854.49 C 483.05,854.50 479.53,854.49 475.99,854.54 C 472.54,854.08 469.16,854.52 465.63,854.48 C 462.10,854.51 458.58,854.52 455.05,854.49 C 451.53,854.47 448.00,854.51 444.47,854.57 C 441.00,854.12 437.63,854.41 434.12,854.51 C 430.58,854.52 427.05,854.51 423.53,854.50 C 420.01,854.49 416.49,854.48 412.96,854.49 C 409.43,854.51 405.90,854.56 402.39,854.40 C 399.02,853.57 395.50,853.51 392.07,852.93 C 388.82,851.64 385.96,849.57 384.12,846.66 C 383.16,843.27 382.51,839.88 382.47,836.35 C 382.51,832.81 382.52,829.29 382.51,825.77 C 382.48,822.25 382.48,818.72 382.55,815.18 C 382.32,811.70 381.49,808.32 381.53,804.78 C 380.65,801.42 380.13,797.97 379.07,794.64 C 377.85,791.35 376.55,788.11 375.18,784.89 C 373.13,782.04 371.27,779.08 369.06,776.36 C 367.04,773.53 364.55,771.02 362.02,768.56 C 359.55,766.05 357.08,763.53 354.32,761.39 C 351.63,759.16 349.01,756.83 346.24,754.70 C 343.65,752.33 340.83,750.29 338.25,747.90 C 335.37,745.93 332.72,743.63 329.97,741.48 C 327.19,739.37 324.61,736.99 321.73,735.01 C 319.12,732.68 316.27,730.65 313.68,728.28 C 310.77,726.35 308.22,723.93 305.38,721.90 C 302.73,719.61 300.00,717.43 297.19,715.35 C 294.46,713.17 291.62,711.14 289.16,708.60 C 286.41,706.45 283.70,704.25 281.20,701.76 C 278.40,699.68 275.80,697.33 273.30,694.83 C 270.83,692.32 268.34,689.82 265.85,687.33 C 263.35,684.85 260.85,682.36 258.35,679.87 C 255.86,677.38 253.40,674.86 250.99,672.31 C 248.99,669.44 246.65,666.83 244.64,663.97 C 242.55,661.18 240.67,658.22 238.44,655.52 C 236.94,652.32 235.12,649.34 233.64,646.23 C 232.17,643.11 230.71,639.91 229.37,636.67 C 228.07,633.43 226.75,630.18 225.50,626.91 C 224.32,623.61 223.08,620.35 222.06,617.03 C 221.12,613.66 219.93,610.36 218.88,607.02 C 218.00,603.65 217.00,600.30 216.07,596.95 C 215.28,593.55 214.41,590.18 213.60,586.79 C 212.72,583.42 212.16,579.99 211.22,576.63 C 210.60,573.20 209.77,569.83 209.28,566.37 C 208.50,562.99 207.69,559.61 207.26,556.14 C 206.60,552.73 205.86,549.34 205.53,545.86 C 204.73,542.48 204.14,539.05 203.53,535.63 C 203.16,532.17 202.50,528.76 201.94,525.33 C 201.49,521.88 201.31,518.38 200.45,515.01 C 200.34,511.49 199.50,508.12 199.47,504.59 C 198.65,501.22 198.54,497.70 198.21,494.23 C 197.43,490.85 197.53,487.30 196.55,483.95 C 196.55,480.42 196.31,476.93 195.59,473.54 C 195.47,470.03 195.33,466.52 194.44,463.16 C 194.53,459.60 195.01,456.19 196.50,453.02 C 198.42,450.12 201.25,448.06 204.68,447.48 C 208.22,447.47 211.68,447.76 214.93,449.15 C 217.83,451.07 220.67,453.12 222.79,455.91 C 224.91,458.68 226.66,461.72 228.19,464.90 C 229.72,468.06 231.05,471.30 232.32,474.57 C 233.38,477.88 234.34,481.23 235.69,484.46 C 236.76,487.80 237.86,491.12 238.98,494.44 C 240.09,497.76 241.20,501.08 242.30,504.40 C 243.41,507.73 244.52,511.05 245.62,514.37 C 246.73,517.69 247.84,521.01 248.94,524.33 C 249.76,527.72 251.16,530.93 252.25,534.26 C 253.34,537.59 254.51,540.89 255.75,544.16 C 256.97,547.44 258.11,550.75 259.21,554.07 C 260.39,557.36 261.73,560.60 263.07,563.84 C 264.33,567.10 265.64,570.35 266.94,573.60 C 268.25,576.85 269.73,580.03 271.32,583.17 C 272.93,586.31 274.49,589.47 276.05,592.63 C 277.70,595.72 279.51,598.72 281.35,601.70 C 283.22,604.66 285.25,607.50 287.34,610.30 C 289.45,613.08 291.49,615.91 293.89,618.48 C 295.84,621.38 298.37,623.85 300.86,626.33 C 303.75,628.31 306.22,630.82 309.04,632.89 C 311.82,635.00 314.69,636.99 317.62,638.91 C 320.54,640.84 323.44,642.80 326.34,644.75 C 329.28,646.64 332.26,648.48 335.24,650.32 C 338.19,652.21 341.22,653.95 344.30,655.63 C 347.31,657.45 350.45,658.97 352.87,659.61 C 350.94,656.57 348.52,654.05 346.06,651.51 C 343.94,648.75 341.67,646.08 339.08,643.66 C 337.05,640.82 334.75,638.19 332.18,635.75 C 329.92,633.08 327.80,630.31 325.34,627.79 C 322.77,625.36 320.43,622.74 318.34,619.95 C 315.95,617.38 313.36,614.96 311.31,612.13 C 309.01,609.49 306.53,606.99 304.53,604.13 C 302.20,601.51 300.16,598.68 298.05,595.88 C 295.81,593.21 293.72,590.41 291.82,587.47 C 290.00,584.48 288.15,581.50 286.46,578.43 C 284.89,575.28 283.32,572.13 282.10,568.85 C 281.23,565.47 280.51,562.08 280.46,558.54 C 280.84,555.06 281.89,551.75 283.75,548.77 C 286.19,546.27 289.04,544.18 292.23,542.78 C 295.71,542.50 299.25,542.45 302.68,543.03 C 305.96,544.24 309.07,545.88 311.99,547.80 C 314.71,550.01 317.53,552.06 320.03,554.54 C 322.53,557.03 325.02,559.52 327.52,562.01 C 330.01,564.50 332.50,567.00 334.99,569.49 C 337.48,571.98 339.97,574.48 342.47,576.97 C 344.96,579.46 347.45,581.96 349.95,584.45 C 352.44,586.94 354.93,589.43 357.43,591.92 C 359.92,594.41 362.60,596.66 365.38,598.77 C 367.97,601.13 370.74,603.26 373.31,605.66 C 376.14,607.70 378.91,609.83 381.72,611.91 C 384.51,614.00 387.30,616.10 390.10,618.19 C 392.89,620.29 395.68,622.39 398.49,624.47 C 401.25,626.60 404.12,628.59 407.05,630.51 C 409.90,632.53 412.69,634.64 415.48,636.74 C 418.27,638.84 421.08,640.91 423.74,643.19 C 426.57,645.23 429.17,647.59 431.58,650.17 C 434.19,652.52 436.92,654.65 439.38,657.04 C 441.43,659.83 443.85,662.38 446.37,664.85 C 448.86,667.35 451.31,669.88 453.33,672.72 C 455.76,675.27 457.89,678.03 460.01,680.80 C 462.00,683.68 463.86,686.65 465.71,689.62 C 467.47,692.64 469.13,695.73 470.73,698.88 C 472.27,702.04 473.76,705.22 475.14,708.44 C 476.35,711.72 477.52,715.03 478.65,718.34 C 479.71,721.68 480.65,725.04 481.49,728.42 C 482.30,731.80 483.19,735.17 483.62,738.63 C 484.32,742.03 484.59,745.51 485.39,748.90 C 485.43,752.42 485.86,755.87 486.51,759.28 C 486.51,762.81 486.50,766.34 487.37,769.71 C 487.51,773.21 487.51,776.74 487.51,780.27 C 487.50,783.79 487.50,787.32 487.50,790.84 C 487.49,794.37 487.49,797.89 487.49,801.42 C 487.49,804.94 487.50,808.47 487.50,811.99 C 487.50,815.52 487.51,819.04 487.51,822.57 C 487.51,826.09 487.51,829.62 487.51,833.14 C 487.51,836.67 487.50,840.19 487.48,843.72 C 487.47,847.24 487.44,850.76 487.41,854.28  Z" fill="#000000"/><path d="M 619.60,854.49 C 616.30,854.28 612.80,854.57 609.29,854.47 C 605.77,854.50 602.26,854.57 598.77,854.25 C 595.43,854.28 591.93,854.53 588.41,854.49 C 585.00,854.11 581.61,854.48 578.08,854.49 C 574.58,854.54 571.06,854.33 567.73,854.24 C 564.24,854.52 560.73,854.52 557.21,854.47 C 553.82,854.09 550.41,854.48 546.87,854.52 C 543.39,854.48 539.86,854.52 536.40,854.19 C 535.44,851.24 535.48,847.66 535.51,844.11 C 535.51,840.60 535.51,837.09 535.51,833.59 C 535.50,830.08 535.50,826.57 535.50,823.06 C 535.50,819.55 535.50,816.04 535.50,812.52 C 535.49,809.01 535.49,805.50 535.50,801.98 C 535.50,798.47 535.50,794.95 535.50,791.44 C 535.50,787.93 535.51,784.42 535.51,780.91 C 535.51,777.40 535.51,773.89 535.49,770.38 C 535.46,766.85 535.51,763.34 536.14,759.95 C 536.54,756.50 536.50,752.98 537.22,749.59 C 537.55,746.13 538.21,742.74 538.77,739.31 C 539.51,735.93 540.23,732.54 541.09,729.17 C 541.91,725.80 543.04,722.50 543.78,719.11 C 545.21,715.92 546.27,712.59 547.59,709.36 C 549.11,706.21 550.72,703.08 552.30,699.95 C 553.82,696.78 555.47,693.70 557.27,690.71 C 559.07,687.73 560.93,684.77 562.93,681.92 C 565.01,679.13 567.14,676.38 569.15,673.54 C 571.49,670.94 573.46,668.07 575.92,665.58 C 578.42,663.10 580.89,660.60 583.37,658.12 C 585.87,655.66 588.35,653.16 590.80,650.63 C 593.54,648.49 596.23,646.28 598.73,643.81 C 601.55,641.78 604.12,639.41 607.00,637.45 C 609.74,635.30 612.67,633.40 615.57,631.47 C 618.45,629.51 621.36,627.60 624.27,625.68 C 627.04,623.56 629.89,621.56 632.77,619.61 C 635.51,617.45 638.30,615.37 641.12,613.34 C 643.92,611.28 646.52,608.94 649.35,606.91 C 651.95,604.58 654.62,602.35 657.38,600.22 C 659.81,597.67 662.28,595.17 665.10,593.14 C 667.70,590.80 670.19,588.33 672.67,585.84 C 675.15,583.35 677.63,580.86 680.11,578.38 C 682.60,575.89 685.08,573.41 687.57,570.94 C 690.06,568.46 692.54,565.97 695.03,563.49 C 697.51,561.00 699.98,558.51 702.45,556.01 C 704.93,553.52 707.45,551.08 710.06,548.76 C 712.99,546.88 716.01,545.11 719.03,543.44 C 722.39,542.57 725.90,542.48 729.40,542.55 C 732.74,543.49 735.71,545.38 738.28,547.72 C 740.65,550.30 742.03,553.46 742.51,556.89 C 742.50,560.41 742.55,563.93 742.05,567.36 C 740.90,570.65 739.52,573.86 738.25,577.11 C 736.59,580.21 734.78,583.18 733.01,586.19 C 731.11,589.11 728.93,591.83 727.03,594.75 C 724.94,597.53 722.66,600.18 720.59,602.97 C 718.39,605.67 716.17,608.35 713.85,610.96 C 711.79,613.76 709.25,616.20 707.19,619.01 C 704.89,621.63 702.38,624.10 700.24,626.84 C 698.04,629.54 695.53,632.00 693.54,634.87 C 691.15,637.42 688.57,639.82 686.28,642.46 C 684.22,645.27 681.71,647.71 679.37,650.33 C 677.31,653.13 674.87,655.59 672.80,658.42 C 675.30,658.04 678.30,656.06 681.43,654.52 C 684.50,652.89 687.44,650.97 690.47,649.26 C 693.44,647.43 696.40,645.59 699.30,643.65 C 702.18,641.69 705.09,639.78 708.01,637.86 C 710.78,635.75 713.61,633.73 716.20,631.39 C 719.07,629.42 721.57,626.94 724.04,624.44 C 726.53,621.97 729.03,619.50 731.46,616.97 C 733.43,614.10 735.84,611.56 737.73,608.63 C 739.68,605.74 741.60,602.83 743.56,599.95 C 745.31,596.93 746.95,593.83 748.80,590.88 C 750.39,587.75 751.94,584.61 753.50,581.47 C 755.12,578.35 756.44,575.12 757.79,571.90 C 759.37,568.77 760.71,565.54 761.97,562.29 C 763.19,559.02 764.27,555.70 765.36,552.39 C 766.39,549.07 767.24,545.69 768.53,542.45 C 769.58,539.15 770.71,535.88 772.02,532.64 C 773.04,529.30 774.15,525.99 775.42,522.74 C 776.64,519.47 777.79,516.18 778.96,512.90 C 780.19,509.63 781.39,506.36 782.52,503.06 C 783.60,499.74 784.68,496.42 785.78,493.11 C 786.89,489.80 788.00,486.50 789.12,483.20 C 790.22,479.89 791.30,476.57 792.37,473.24 C 793.53,469.96 794.88,466.74 796.41,463.58 C 798.05,460.47 799.80,457.47 801.86,454.64 C 804.41,452.26 807.27,450.28 810.37,448.65 C 813.70,447.72 817.19,447.40 820.68,447.76 C 823.75,449.29 826.14,451.87 827.75,454.99 C 828.54,458.33 828.52,461.87 828.17,465.32 C 827.66,468.66 827.52,472.16 827.26,475.63 C 826.46,479.00 826.50,482.53 825.59,485.87 C 825.53,489.38 825.23,492.84 824.46,496.22 C 824.44,499.74 823.61,503.10 823.53,506.61 C 822.80,509.99 822.58,513.47 821.84,516.85 C 821.52,520.31 820.97,523.73 820.38,527.14 C 819.82,530.56 819.29,533.98 818.58,537.37 C 818.19,540.82 817.52,544.21 817.01,547.64 C 816.32,551.04 815.59,554.42 814.91,557.82 C 814.33,561.24 813.54,564.61 812.86,568.01 C 812.30,571.43 811.51,574.80 810.87,578.21 C 809.94,581.56 809.37,584.98 808.53,588.34 C 807.70,591.72 806.86,595.08 806.00,598.45 C 805.19,601.82 804.11,605.14 803.27,608.50 C 802.23,611.83 801.12,615.14 800.24,618.49 C 799.29,621.85 798.04,625.10 796.76,628.35 C 795.63,631.65 794.33,634.88 793.07,638.14 C 791.63,641.32 790.02,644.44 788.44,647.58 C 786.93,650.75 785.23,653.80 783.43,656.79 C 781.62,659.77 779.49,662.52 777.39,665.30 C 775.32,668.09 772.92,670.64 770.84,673.43 C 768.48,676.01 766.13,678.59 764.05,681.39 C 761.65,683.93 759.11,686.37 756.63,688.87 C 754.15,691.35 751.49,693.59 748.69,695.67 C 746.29,698.26 743.78,700.70 741.04,702.85 C 738.35,705.06 735.94,707.64 733.13,709.69 C 730.52,712.01 727.85,714.25 725.12,716.41 C 722.41,718.59 719.67,720.74 716.98,722.95 C 714.15,724.98 711.44,727.17 708.70,729.31 C 706.00,731.51 703.27,733.67 700.61,735.92 C 697.79,737.96 695.06,740.12 692.25,742.17 C 689.47,744.26 686.85,746.57 683.97,748.52 C 681.41,750.91 678.55,752.90 676.08,755.41 C 673.22,757.38 670.70,759.83 668.07,762.11 C 665.29,764.20 662.81,766.69 660.34,769.19 C 657.81,771.64 655.38,774.16 653.18,776.86 C 651.12,779.67 649.13,782.52 647.42,785.58 C 645.89,788.73 644.53,791.95 643.36,795.23 C 642.56,798.62 641.84,802.00 641.50,805.46 C 640.89,808.86 640.45,812.30 640.51,815.83 C 640.52,819.34 640.51,822.85 640.48,826.36 C 640.47,829.87 640.50,833.39 640.56,836.91 C 640.47,840.41 639.95,843.83 638.71,847.10 C 636.65,849.91 633.78,851.87 630.47,853.03 C 627.06,853.54 623.52,853.46 620.20,854.27  Z" fill="#000000"/><path d="M 992.85,521.30 C 992.85,521.29 992.85,521.29 992.85,521.29 C 992.85,521.28 992.84,521.28 992.84,521.28 C 992.84,521.27 992.84,521.27 992.84,521.26 C 992.84,521.26 992.83,521.26 992.83,521.25 C 992.83,521.25 992.83,521.25 992.83,521.24 C 992.83,521.24 992.82,521.23 992.82,521.23 C 992.82,521.23 992.82,521.22 992.82,521.22 C 992.82,521.22 992.82,521.21 992.82,521.21 C 992.81,521.21 992.81,521.20 992.81,521.20 C 992.81,521.20 992.81,521.19 992.81,521.19 C 992.81,521.19 992.81,521.18 992.81,521.18 C 992.81,521.18 992.81,521.17 992.80,521.17 C 992.80,521.17 992.80,521.16 992.80,521.16 C 992.80,521.16 992.80,521.15 992.80,521.15 C 992.80,521.15 992.80,521.15 992.80,521.14 C 992.80,521.14 992.80,521.14 992.80,521.13 C 992.80,521.13 992.80,521.13 992.80,521.12 C 992.80,521.12 992.80,521.12 992.80,521.12 C 992.80,521.11 992.80,521.11 992.80,521.11 C 992.80,521.10 992.80,521.10 992.80,521.10 C 992.80,521.10 992.80,521.09 992.80,521.09 C 992.80,521.09 992.80,521.09 992.80,521.08 C 992.80,521.08 992.80,521.08 992.80,521.07 C 992.80,521.07 992.80,521.07 992.80,521.07 C 992.80,521.06 992.80,521.06 992.80,521.06 C 992.80,521.06 992.80,521.05 992.80,521.05 C 992.80,521.05 992.80,521.05 992.80,521.05 C 992.81,521.04 992.81,521.04 992.81,521.04 C 992.81,521.04 992.81,521.03 992.81,521.03 C 992.81,521.03 992.81,521.03 992.81,521.03 C 992.81,521.02 992.81,521.02 992.81,521.02 C 992.82,521.02 992.82,521.01 992.82,521.01 C 992.82,521.01 992.82,521.01 992.82,521.01 C 992.82,521.00 992.82,521.00 992.82,521.00 C 992.82,521.00 992.83,521.00 992.83,521.00 C 992.83,520.99 992.83,520.99 992.83,520.99 C 992.83,520.99 992.83,520.99 992.83,520.98 C 992.84,520.98 992.84,520.98 992.84,520.98 C 992.84,520.98 992.84,520.98 992.84,520.97 C 992.84,520.97 992.85,520.97 992.85,520.97 C 992.85,520.97 992.85,520.97 992.85,520.96 C 992.85,520.96 992.85,520.96 992.86,520.96 C 992.86,520.96 992.86,520.96 992.86,520.96 C 992.86,520.95 992.86,520.95 992.87,520.95 C 992.87,520.95 992.87,520.95 992.87,520.95 C 992.87,520.95 992.87,520.95 992.88,520.94 C 992.88,520.94 992.88,520.94 992.88,520.94 C 992.88,520.94 992.88,520.94 992.89,520.94 C 992.89,520.94 992.89,520.94 992.89,520.93 C 992.89,520.93 992.90,520.93 992.90,520.93 C 992.90,520.93 992.90,520.93 992.90,520.93 C 992.91,520.93 992.91,520.93 992.91,520.93 C 992.91,520.93 992.91,520.92 992.92,520.92 C 992.92,520.92 992.92,520.92 992.92,520.92 C 992.92,520.92 992.93,520.92 992.93,520.92 C 992.93,520.92 992.93,520.92 992.93,520.92 C 992.94,520.92 992.94,520.92 992.94,520.92 C 992.94,520.91 992.94,520.91 992.95,520.91 C 992.95,520.91 992.95,520.91 992.95,520.91 C 992.95,520.91 992.96,520.91 992.96,520.91 C 992.96,520.91 992.96,520.91 992.96,520.91 C 992.97,520.91 992.97,520.91 992.97,520.91 C 992.97,520.91 992.98,520.91 992.98,520.91 C 992.98,520.91 992.98,520.91 992.98,520.91 C 992.99,520.91 992.99,520.91 992.99,520.91 C 992.99,520.91 992.99,520.91 993.00,520.91 C 993.00,520.91 993.00,520.91 993.00,520.91 C 993.01,520.91 993.01,520.91 993.01,520.91 C 993.01,520.91 993.01,520.91 993.02,520.91 C 993.02,520.91 993.02,520.91 993.02,520.91 C 993.02,520.91 993.03,520.91 993.03,520.91 C 993.03,520.91 993.03,520.91 993.04,520.91 C 993.04,520.91 993.04,520.91 993.04,520.91 C 993.04,520.91 993.05,520.91 993.05,520.91 C 993.05,520.91 993.05,520.91 993.05,520.91 C 993.06,520.91 993.06,520.91 993.06,520.92 C 993.06,520.92 993.06,520.92 993.07,520.92 C 993.07,520.92 993.07,520.92 993.07,520.92 C 993.07,520.92 993.08,520.92 993.08,520.92 C 993.08,520.92 993.08,520.92 993.08,520.92 C 993.09,520.92 993.09,520.93 993.09,520.93 C 993.09,520.93 993.09,520.93 993.10,520.93 C 993.10,520.93 993.10,520.93 993.10,520.93 C 993.10,520.93 993.11,520.93 993.11,520.93 C 993.11,520.94 993.11,520.94 993.11,520.94 C 993.12,520.94 993.12,520.94 993.12,520.94 C 993.12,520.94 993.12,520.94 993.12,520.94 C 993.13,520.95 993.13,520.95 993.13,520.95 C 993.13,520.95 993.13,520.95 993.13,520.95 C 993.14,520.95 993.14,520.95 993.14,520.96 C 993.14,520.96 993.14,520.96 993.14,520.96 C 993.15,520.96 993.15,520.96 993.15,520.96 C 993.15,520.97 993.15,520.97 993.15,520.97 C 993.15,520.97 993.16,520.97 993.16,520.97 C 993.16,520.98 993.16,520.98 993.16,520.98 C 993.16,520.98 993.16,520.98 993.17,520.98 C 993.17,520.99 993.17,520.99 993.17,520.99 C 993.17,520.99 993.17,520.99 993.17,521.00 C 993.17,521.00 993.18,521.00 993.18,521.00 C 993.18,521.00 993.18,521.00 993.18,521.01 C 993.18,521.01 993.18,521.01 993.18,521.01 C 993.18,521.01 993.18,521.02 993.19,521.02 C 993.19,521.02 993.19,521.02 993.19,521.03 C 993.19,521.03 993.19,521.03 993.19,521.03 C 993.19,521.03 993.19,521.04 993.19,521.04 C 993.19,521.04 993.19,521.04 993.20,521.05 C 993.20,521.05 993.20,521.05 993.20,521.05 C 993.20,521.05 993.20,521.06 993.20,521.06 C 993.20,521.06 993.20,521.06 993.20,521.07 C 993.20,521.07 993.20,521.07 993.20,521.07 C 993.20,521.08 993.20,521.08 993.20,521.08 C 993.20,521.09 993.20,521.09 993.20,521.09 C 993.20,521.09 993.20,521.10 993.20,521.10 C 993.20,521.10 993.20,521.10 993.20,521.11 C 993.20,521.11 993.20,521.11 993.20,521.12 C 993.20,521.12 993.20,521.12 993.20,521.12 C 993.20,521.13 993.20,521.13 993.20,521.13 C 993.20,521.14 993.20,521.14 993.20,521.14 C 993.20,521.15 993.20,521.15 993.20,521.15 C 993.20,521.15 993.20,521.16 993.20,521.16 C 993.20,521.16 993.20,521.17 993.20,521.17 C 993.19,521.17 993.19,521.18 993.19,521.18 C 993.19,521.18 993.19,521.19 993.19,521.19 C 993.19,521.19 993.19,521.20 993.19,521.20 C 993.19,521.20 993.19,521.21 993.18,521.21 C 993.18,521.21 993.18,521.22 993.18,521.22 C 993.18,521.22 993.18,521.23 993.18,521.23 C 993.18,521.23 993.17,521.24 993.17,521.24 C 993.17,521.25 993.17,521.25 993.17,521.25 C 993.17,521.26 993.16,521.26 993.16,521.26 C 993.16,521.27 993.16,521.27 993.16,521.28 C 993.16,521.28 993.15,521.28 993.15,521.29 C 993.15,521.29 993.15,521.29 993.15,521.30  Z" fill="#000000"/><path d="M 189.85,621.30 C 189.85,621.29 189.85,621.29 189.85,621.29 C 189.85,621.28 189.84,621.28 189.84,621.28 C 189.84,621.27 189.84,621.27 189.84,621.26 C 189.84,621.26 189.83,621.26 189.83,621.25 C 189.83,621.25 189.83,621.25 189.83,621.24 C 189.83,621.24 189.82,621.23 189.82,621.23 C 189.82,621.23 189.82,621.22 189.82,621.22 C 189.82,621.22 189.82,621.21 189.82,621.21 C 189.81,621.21 189.81,621.20 189.81,621.20 C 189.81,621.20 189.81,621.19 189.81,621.19 C 189.81,621.19 189.81,621.18 189.81,621.18 C 189.81,621.18 189.81,621.17 189.80,621.17 C 189.80,621.17 189.80,621.16 189.80,621.16 C 189.80,621.16 189.80,621.15 189.80,621.15 C 189.80,621.15 189.80,621.15 189.80,621.14 C 189.80,621.14 189.80,621.14 189.80,621.13 C 189.80,621.13 189.80,621.13 189.80,621.12 C 189.80,621.12 189.80,621.12 189.80,621.12 C 189.80,621.11 189.80,621.11 189.80,621.11 C 189.80,621.10 189.80,621.10 189.80,621.10 C 189.80,621.10 189.80,621.09 189.80,621.09 C 189.80,621.09 189.80,621.09 189.80,621.08 C 189.80,621.08 189.80,621.08 189.80,621.07 C 189.80,621.07 189.80,621.07 189.80,621.07 C 189.80,621.06 189.80,621.06 189.80,621.06 C 189.80,621.06 189.80,621.05 189.80,621.05 C 189.80,621.05 189.80,621.05 189.80,621.05 C 189.81,621.04 189.81,621.04 189.81,621.04 C 189.81,621.04 189.81,621.03 189.81,621.03 C 189.81,621.03 189.81,621.03 189.81,621.03 C 189.81,621.02 189.81,621.02 189.81,621.02 C 189.82,621.02 189.82,621.01 189.82,621.01 C 189.82,621.01 189.82,621.01 189.82,621.01 C 189.82,621.00 189.82,621.00 189.82,621.00 C 189.82,621.00 189.83,621.00 189.83,621.00 C 189.83,620.99 189.83,620.99 189.83,620.99 C 189.83,620.99 189.83,620.99 189.83,620.98 C 189.84,620.98 189.84,620.98 189.84,620.98 C 189.84,620.98 189.84,620.98 189.84,620.97 C 189.84,620.97 189.85,620.97 189.85,620.97 C 189.85,620.97 189.85,620.97 189.85,620.96 C 189.85,620.96 189.85,620.96 189.86,620.96 C 189.86,620.96 189.86,620.96 189.86,620.96 C 189.86,620.95 189.86,620.95 189.87,620.95 C 189.87,620.95 189.87,620.95 189.87,620.95 C 189.87,620.95 189.87,620.95 189.88,620.94 C 189.88,620.94 189.88,620.94 189.88,620.94 C 189.88,620.94 189.88,620.94 189.89,620.94 C 189.89,620.94 189.89,620.94 189.89,620.93 C 189.89,620.93 189.90,620.93 189.90,620.93 C 189.90,620.93 189.90,620.93 189.90,620.93 C 189.91,620.93 189.91,620.93 189.91,620.93 C 189.91,620.93 189.91,620.92 189.92,620.92 C 189.92,620.92 189.92,620.92 189.92,620.92 C 189.92,620.92 189.93,620.92 189.93,620.92 C 189.93,620.92 189.93,620.92 189.93,620.92 C 189.94,620.92 189.94,620.92 189.94,620.92 C 189.94,620.91 189.94,620.91 189.95,620.91 C 189.95,620.91 189.95,620.91 189.95,620.91 C 189.95,620.91 189.96,620.91 189.96,620.91 C 189.96,620.91 189.96,620.91 189.96,620.91 C 189.97,620.91 189.97,620.91 189.97,620.91 C 189.97,620.91 189.98,620.91 189.98,620.91 C 189.98,620.91 189.98,620.91 189.98,620.91 C 189.99,620.91 189.99,620.91 189.99,620.91 C 189.99,620.91 189.99,620.91 190.00,620.91 C 190.00,620.91 190.00,620.91 190.00,620.91 C 190.01,620.91 190.01,620.91 190.01,620.91 C 190.01,620.91 190.01,620.91 190.02,620.91 C 190.02,620.91 190.02,620.91 190.02,620.91 C 190.02,620.91 190.03,620.91 190.03,620.91 C 190.03,620.91 190.03,620.91 190.04,620.91 C 190.04,620.91 190.04,620.91 190.04,620.91 C 190.04,620.91 190.05,620.91 190.05,620.91 C 190.05,620.91 190.05,620.91 190.05,620.91 C 190.06,620.91 190.06,620.91 190.06,620.92 C 190.06,620.92 190.06,620.92 190.07,620.92 C 190.07,620.92 190.07,620.92 190.07,620.92 C 190.07,620.92 190.08,620.92 190.08,620.92 C 190.08,620.92 190.08,620.92 190.08,620.92 C 190.09,620.92 190.09,620.93 190.09,620.93 C 190.09,620.93 190.09,620.93 190.10,620.93 C 190.10,620.93 190.10,620.93 190.10,620.93 C 190.10,620.93 190.11,620.93 190.11,620.93 C 190.11,620.94 190.11,620.94 190.11,620.94 C 190.12,620.94 190.12,620.94 190.12,620.94 C 190.12,620.94 190.12,620.94 190.12,620.94 C 190.13,620.95 190.13,620.95 190.13,620.95 C 190.13,620.95 190.13,620.95 190.13,620.95 C 190.14,620.95 190.14,620.95 190.14,620.96 C 190.14,620.96 190.14,620.96 190.14,620.96 C 190.15,620.96 190.15,620.96 190.15,620.96 C 190.15,620.97 190.15,620.97 190.15,620.97 C 190.15,620.97 190.16,620.97 190.16,620.97 C 190.16,620.98 190.16,620.98 190.16,620.98 C 190.16,620.98 190.16,620.98 190.17,620.98 C 190.17,620.99 190.17,620.99 190.17,620.99 C 190.17,620.99 190.17,620.99 190.17,621.00 C 190.17,621.00 190.18,621.00 190.18,621.00 C 190.18,621.00 190.18,621.00 190.18,621.01 C 190.18,621.01 190.18,621.01 190.18,621.01 C 190.18,621.01 190.18,621.02 190.19,621.02 C 190.19,621.02 190.19,621.02 190.19,621.03 C 190.19,621.03 190.19,621.03 190.19,621.03 C 190.19,621.03 190.19,621.04 190.19,621.04 C 190.19,621.04 190.19,621.04 190.20,621.05 C 190.20,621.05 190.20,621.05 190.20,621.05 C 190.20,621.05 190.20,621.06 190.20,621.06 C 190.20,621.06 190.20,621.06 190.20,621.07 C 190.20,621.07 190.20,621.07 190.20,621.07 C 190.20,621.08 190.20,621.08 190.20,621.08 C 190.20,621.09 190.20,621.09 190.20,621.09 C 190.20,621.09 190.20,621.10 190.20,621.10 C 190.20,621.10 190.20,621.10 190.20,621.11 C 190.20,621.11 190.20,621.11 190.20,621.12 C 190.20,621.12 190.20,621.12 190.20,621.12 C 190.20,621.13 190.20,621.13 190.20,621.13 C 190.20,621.14 190.20,621.14 190.20,621.14 C 190.20,621.15 190.20,621.15 190.20,621.15 C 190.20,621.15 190.20,621.16 190.20,621.16 C 190.20,621.16 190.20,621.17 190.20,621.17 C 190.19,621.17 190.19,621.18 190.19,621.18 C 190.19,621.18 190.19,621.19 190.19,621.19 C 190.19,621.19 190.19,621.20 190.19,621.20 C 190.19,621.20 190.19,621.21 190.18,621.21 C 190.18,621.21 190.18,621.22 190.18,621.22 C 190.18,621.22 190.18,621.23 190.18,621.23 C 190.18,621.23 190.17,621.24 190.17,621.24 C 190.17,621.25 190.17,621.25 190.17,621.25 C 190.17,621.26 190.16,621.26 190.16,621.26 C 190.16,621.27 190.16,621.27 190.16,621.28 C 190.16,621.28 190.15,621.28 190.15,621.29 C 190.15,621.29 190.15,621.29 190.15,621.30  Z" fill="#000000"/><path d="M 984.85,700.30 C 984.85,700.29 984.85,700.29 984.85,700.29 C 984.85,700.28 984.84,700.28 984.84,700.28 C 984.84,700.27 984.84,700.27 984.84,700.26 C 984.84,700.26 984.83,700.26 984.83,700.25 C 984.83,700.25 984.83,700.25 984.83,700.24 C 984.83,700.24 984.82,700.23 984.82,700.23 C 984.82,700.23 984.82,700.22 984.82,700.22 C 984.82,700.22 984.82,700.21 984.82,700.21 C 984.81,700.21 984.81,700.20 984.81,700.20 C 984.81,700.20 984.81,700.19 984.81,700.19 C 984.81,700.19 984.81,700.18 984.81,700.18 C 984.81,700.18 984.81,700.17 984.80,700.17 C 984.80,700.17 984.80,700.16 984.80,700.16 C 984.80,700.16 984.80,700.15 984.80,700.15 C 984.80,700.15 984.80,700.15 984.80,700.14 C 984.80,700.14 984.80,700.14 984.80,700.13 C 984.80,700.13 984.80,700.13 984.80,700.12 C 984.80,700.12 984.80,700.12 984.80,700.12 C 984.80,700.11 984.80,700.11 984.80,700.11 C 984.80,700.10 984.80,700.10 984.80,700.10 C 984.80,700.10 984.80,700.09 984.80,700.09 C 984.80,700.09 984.80,700.09 984.80,700.08 C 984.80,700.08 984.80,700.08 984.80,700.07 C 984.80,700.07 984.80,700.07 984.80,700.07 C 984.80,700.06 984.80,700.06 984.80,700.06 C 984.80,700.06 984.80,700.05 984.80,700.05 C 984.80,700.05 984.80,700.05 984.80,700.05 C 984.81,700.04 984.81,700.04 984.81,700.04 C 984.81,700.04 984.81,700.03 984.81,700.03 C 984.81,700.03 984.81,700.03 984.81,700.03 C 984.81,700.02 984.81,700.02 984.81,700.02 C 984.82,700.02 984.82,700.01 984.82,700.01 C 984.82,700.01 984.82,700.01 984.82,700.01 C 984.82,700.00 984.82,700.00 984.82,700.00 C 984.82,700.00 984.83,700.00 984.83,700.00 C 984.83,699.99 984.83,699.99 984.83,699.99 C 984.83,699.99 984.83,699.99 984.83,699.98 C 984.84,699.98 984.84,699.98 984.84,699.98 C 984.84,699.98 984.84,699.98 984.84,699.97 C 984.84,699.97 984.85,699.97 984.85,699.97 C 984.85,699.97 984.85,699.97 984.85,699.96 C 984.85,699.96 984.85,699.96 984.86,699.96 C 984.86,699.96 984.86,699.96 984.86,699.96 C 984.86,699.95 984.86,699.95 984.87,699.95 C 984.87,699.95 984.87,699.95 984.87,699.95 C 984.87,699.95 984.87,699.95 984.88,699.94 C 984.88,699.94 984.88,699.94 984.88,699.94 C 984.88,699.94 984.88,699.94 984.89,699.94 C 984.89,699.94 984.89,699.94 984.89,699.93 C 984.89,699.93 984.90,699.93 984.90,699.93 C 984.90,699.93 984.90,699.93 984.90,699.93 C 984.91,699.93 984.91,699.93 984.91,699.93 C 984.91,699.93 984.91,699.92 984.92,699.92 C 984.92,699.92 984.92,699.92 984.92,699.92 C 984.92,699.92 984.93,699.92 984.93,699.92 C 984.93,699.92 984.93,699.92 984.93,699.92 C 984.94,699.92 984.94,699.92 984.94,699.92 C 984.94,699.91 984.94,699.91 984.95,699.91 C 984.95,699.91 984.95,699.91 984.95,699.91 C 984.95,699.91 984.96,699.91 984.96,699.91 C 984.96,699.91 984.96,699.91 984.96,699.91 C 984.97,699.91 984.97,699.91 984.97,699.91 C 984.97,699.91 984.98,699.91 984.98,699.91 C 984.98,699.91 984.98,699.91 984.98,699.91 C 984.99,699.91 984.99,699.91 984.99,699.91 C 984.99,699.91 984.99,699.91 985.00,699.91 C 985.00,699.91 985.00,699.91 985.00,699.91 C 985.01,699.91 985.01,699.91 985.01,699.91 C 985.01,699.91 985.01,699.91 985.02,699.91 C 985.02,699.91 985.02,699.91 985.02,699.91 C 985.02,699.91 985.03,699.91 985.03,699.91 C 985.03,699.91 985.03,699.91 985.04,699.91 C 985.04,699.91 985.04,699.91 985.04,699.91 C 985.04,699.91 985.05,699.91 985.05,699.91 C 985.05,699.91 985.05,699.91 985.05,699.91 C 985.06,699.91 985.06,699.91 985.06,699.92 C 985.06,699.92 985.06,699.92 985.07,699.92 C 985.07,699.92 985.07,699.92 985.07,699.92 C 985.07,699.92 985.08,699.92 985.08,699.92 C 985.08,699.92 985.08,699.92 985.08,699.92 C 985.09,699.92 985.09,699.93 985.09,699.93 C 985.09,699.93 985.09,699.93 985.10,699.93 C 985.10,699.93 985.10,699.93 985.10,699.93 C 985.10,699.93 985.11,699.93 985.11,699.93 C 985.11,699.94 985.11,699.94 985.11,699.94 C 985.12,699.94 985.12,699.94 985.12,699.94 C 985.12,699.94 985.12,699.94 985.12,699.94 C 985.13,699.95 985.13,699.95 985.13,699.95 C 985.13,699.95 985.13,699.95 985.13,699.95 C 985.14,699.95 985.14,699.95 985.14,699.96 C 985.14,699.96 985.14,699.96 985.14,699.96 C 985.15,699.96 985.15,699.96 985.15,699.96 C 985.15,699.97 985.15,699.97 985.15,699.97 C 985.15,699.97 985.16,699.97 985.16,699.97 C 985.16,699.98 985.16,699.98 985.16,699.98 C 985.16,699.98 985.16,699.98 985.17,699.98 C 985.17,699.99 985.17,699.99 985.17,699.99 C 985.17,699.99 985.17,699.99 985.17,700.00 C 985.17,700.00 985.18,700.00 985.18,700.00 C 985.18,700.00 985.18,700.00 985.18,700.01 C 985.18,700.01 985.18,700.01 985.18,700.01 C 985.18,700.01 985.18,700.02 985.19,700.02 C 985.19,700.02 985.19,700.02 985.19,700.03 C 985.19,700.03 985.19,700.03 985.19,700.03 C 985.19,700.03 985.19,700.04 985.19,700.04 C 985.19,700.04 985.19,700.04 985.20,700.05 C 985.20,700.05 985.20,700.05 985.20,700.05 C 985.20,700.05 985.20,700.06 985.20,700.06 C 985.20,700.06 985.20,700.06 985.20,700.07 C 985.20,700.07 985.20,700.07 985.20,700.07 C 985.20,700.08 985.20,700.08 985.20,700.08 C 985.20,700.09 985.20,700.09 985.20,700.09 C 985.20,700.09 985.20,700.10 985.20,700.10 C 985.20,700.10 985.20,700.10 985.20,700.11 C 985.20,700.11 985.20,700.11 985.20,700.12 C 985.20,700.12 985.20,700.12 985.20,700.12 C 985.20,700.13 985.20,700.13 985.20,700.13 C 985.20,700.14 985.20,700.14 985.20,700.14 C 985.20,700.15 985.20,700.15 985.20,700.15 C 985.20,700.15 985.20,700.16 985.20,700.16 C 985.20,700.16 985.20,700.17 985.20,700.17 C 985.19,700.17 985.19,700.18 985.19,700.18 C 985.19,700.18 985.19,700.19 985.19,700.19 C 985.19,700.19 985.19,700.20 985.19,700.20 C 985.19,700.20 985.19,700.21 985.18,700.21 C 985.18,700.21 985.18,700.22 985.18,700.22 C 985.18,700.22 985.18,700.23 985.18,700.23 C 985.18,700.23 985.17,700.24 985.17,700.24 C 985.17,700.25 985.17,700.25 985.17,700.25 C 985.17,700.26 985.16,700.26 985.16,700.26 C 985.16,700.27 985.16,700.27 985.16,700.28 C 985.16,700.28 985.15,700.28 985.15,700.29 C 985.15,700.29 985.15,700.29 985.15,700.30  Z" fill="#000000"/><path d="M 890.85,722.30 C 890.85,722.29 890.85,722.29 890.85,722.29 C 890.85,722.28 890.84,722.28 890.84,722.28 C 890.84,722.27 890.84,722.27 890.84,722.26 C 890.84,722.26 890.83,722.26 890.83,722.25 C 890.83,722.25 890.83,722.25 890.83,722.24 C 890.83,722.24 890.82,722.23 890.82,722.23 C 890.82,722.23 890.82,722.22 890.82,722.22 C 890.82,722.22 890.82,722.21 890.82,722.21 C 890.81,722.21 890.81,722.20 890.81,722.20 C 890.81,722.20 890.81,722.19 890.81,722.19 C 890.81,722.19 890.81,722.18 890.81,722.18 C 890.81,722.18 890.81,722.17 890.80,722.17 C 890.80,722.17 890.80,722.16 890.80,722.16 C 890.80,722.16 890.80,722.15 890.80,722.15 C 890.80,722.15 890.80,722.15 890.80,722.14 C 890.80,722.14 890.80,722.14 890.80,722.13 C 890.80,722.13 890.80,722.13 890.80,722.12 C 890.80,722.12 890.80,722.12 890.80,722.12 C 890.80,722.11 890.80,722.11 890.80,722.11 C 890.80,722.10 890.80,722.10 890.80,722.10 C 890.80,722.10 890.80,722.09 890.80,722.09 C 890.80,722.09 890.80,722.09 890.80,722.08 C 890.80,722.08 890.80,722.08 890.80,722.07 C 890.80,722.07 890.80,722.07 890.80,722.07 C 890.80,722.06 890.80,722.06 890.80,722.06 C 890.80,722.06 890.80,722.05 890.80,722.05 C 890.80,722.05 890.80,722.05 890.80,722.05 C 890.81,722.04 890.81,722.04 890.81,722.04 C 890.81,722.04 890.81,722.03 890.81,722.03 C 890.81,722.03 890.81,722.03 890.81,722.03 C 890.81,722.02 890.81,722.02 890.81,722.02 C 890.82,722.02 890.82,722.01 890.82,722.01 C 890.82,722.01 890.82,722.01 890.82,722.01 C 890.82,722.00 890.82,722.00 890.82,722.00 C 890.82,722.00 890.83,722.00 890.83,722.00 C 890.83,721.99 890.83,721.99 890.83,721.99 C 890.83,721.99 890.83,721.99 890.83,721.98 C 890.84,721.98 890.84,721.98 890.84,721.98 C 890.84,721.98 890.84,721.98 890.84,721.97 C 890.84,721.97 890.85,721.97 890.85,721.97 C 890.85,721.97 890.85,721.97 890.85,721.96 C 890.85,721.96 890.85,721.96 890.86,721.96 C 890.86,721.96 890.86,721.96 890.86,721.96 C 890.86,721.95 890.86,721.95 890.87,721.95 C 890.87,721.95 890.87,721.95 890.87,721.95 C 890.87,721.95 890.87,721.95 890.88,721.94 C 890.88,721.94 890.88,721.94 890.88,721.94 C 890.88,721.94 890.88,721.94 890.89,721.94 C 890.89,721.94 890.89,721.94 890.89,721.93 C 890.89,721.93 890.90,721.93 890.90,721.93 C 890.90,721.93 890.90,721.93 890.90,721.93 C 890.91,721.93 890.91,721.93 890.91,721.93 C 890.91,721.93 890.91,721.92 890.92,721.92 C 890.92,721.92 890.92,721.92 890.92,721.92 C 890.92,721.92 890.93,721.92 890.93,721.92 C 890.93,721.92 890.93,721.92 890.93,721.92 C 890.94,721.92 890.94,721.92 890.94,721.92 C 890.94,721.91 890.94,721.91 890.95,721.91 C 890.95,721.91 890.95,721.91 890.95,721.91 C 890.95,721.91 890.96,721.91 890.96,721.91 C 890.96,721.91 890.96,721.91 890.96,721.91 C 890.97,721.91 890.97,721.91 890.97,721.91 C 890.97,721.91 890.98,721.91 890.98,721.91 C 890.98,721.91 890.98,721.91 890.98,721.91 C 890.99,721.91 890.99,721.91 890.99,721.91 C 890.99,721.91 890.99,721.91 891.00,721.91 C 891.00,721.91 891.00,721.91 891.00,721.91 C 891.01,721.91 891.01,721.91 891.01,721.91 C 891.01,721.91 891.01,721.91 891.02,721.91 C 891.02,721.91 891.02,721.91 891.02,721.91 C 891.02,721.91 891.03,721.91 891.03,721.91 C 891.03,721.91 891.03,721.91 891.04,721.91 C 891.04,721.91 891.04,721.91 891.04,721.91 C 891.04,721.91 891.05,721.91 891.05,721.91 C 891.05,721.91 891.05,721.91 891.05,721.91 C 891.06,721.91 891.06,721.91 891.06,721.92 C 891.06,721.92 891.06,721.92 891.07,721.92 C 891.07,721.92 891.07,721.92 891.07,721.92 C 891.07,721.92 891.08,721.92 891.08,721.92 C 891.08,721.92 891.08,721.92 891.08,721.92 C 891.09,721.92 891.09,721.93 891.09,721.93 C 891.09,721.93 891.09,721.93 891.10,721.93 C 891.10,721.93 891.10,721.93 891.10,721.93 C 891.10,721.93 891.11,721.93 891.11,721.93 C 891.11,721.94 891.11,721.94 891.11,721.94 C 891.12,721.94 891.12,721.94 891.12,721.94 C 891.12,721.94 891.12,721.94 891.12,721.94 C 891.13,721.95 891.13,721.95 891.13,721.95 C 891.13,721.95 891.13,721.95 891.13,721.95 C 891.14,721.95 891.14,721.95 891.14,721.96 C 891.14,721.96 891.14,721.96 891.14,721.96 C 891.15,721.96 891.15,721.96 891.15,721.96 C 891.15,721.97 891.15,721.97 891.15,721.97 C 891.15,721.97 891.16,721.97 891.16,721.97 C 891.16,721.98 891.16,721.98 891.16,721.98 C 891.16,721.98 891.16,721.98 891.17,721.98 C 891.17,721.99 891.17,721.99 891.17,721.99 C 891.17,721.99 891.17,721.99 891.17,722.00 C 891.17,722.00 891.18,722.00 891.18,722.00 C 891.18,722.00 891.18,722.00 891.18,722.01 C 891.18,722.01 891.18,722.01 891.18,722.01 C 891.18,722.01 891.18,722.02 891.19,722.02 C 891.19,722.02 891.19,722.02 891.19,722.03 C 891.19,722.03 891.19,722.03 891.19,722.03 C 891.19,722.03 891.19,722.04 891.19,722.04 C 891.19,722.04 891.19,722.04 891.20,722.05 C 891.20,722.05 891.20,722.05 891.20,722.05 C 891.20,722.05 891.20,722.06 891.20,722.06 C 891.20,722.06 891.20,722.06 891.20,722.07 C 891.20,722.07 891.20,722.07 891.20,722.07 C 891.20,722.08 891.20,722.08 891.20,722.08 C 891.20,722.09 891.20,722.09 891.20,722.09 C 891.20,722.09 891.20,722.10 891.20,722.10 C 891.20,722.10 891.20,722.10 891.20,722.11 C 891.20,722.11 891.20,722.11 891.20,722.12 C 891.20,722.12 891.20,722.12 891.20,722.12 C 891.20,722.13 891.20,722.13 891.20,722.13 C 891.20,722.14 891.20,722.14 891.20,722.14 C 891.20,722.15 891.20,722.15 891.20,722.15 C 891.20,722.15 891.20,722.16 891.20,722.16 C 891.20,722.16 891.20,722.17 891.20,722.17 C 891.19,722.17 891.19,722.18 891.19,722.18 C 891.19,722.18 891.19,722.19 891.19,722.19 C 891.19,722.19 891.19,722.20 891.19,722.20 C 891.19,722.20 891.19,722.21 891.18,722.21 C 891.18,722.21 891.18,722.22 891.18,722.22 C 891.18,722.22 891.18,722.23 891.18,722.23 C 891.18,722.23 891.17,722.24 891.17,722.24 C 891.17,722.25 891.17,722.25 891.17,722.25 C 891.17,722.26 891.16,722.26 891.16,722.26 C 891.16,722.27 891.16,722.27 891.16,722.28 C 891.16,722.28 891.15,722.28 891.15,722.29 C 891.15,722.29 891.15,722.29 891.15,722.30  Z" fill="#000000"/><path d="M 821.85,1015.30 C 821.85,1015.29 821.85,1015.29 821.85,1015.29 C 821.85,1015.28 821.84,1015.28 821.84,1015.28 C 821.84,1015.27 821.84,1015.27 821.84,1015.26 C 821.84,1015.26 821.83,1015.26 821.83,1015.25 C 821.83,1015.25 821.83,1015.25 821.83,1015.24 C 821.83,1015.24 821.82,1015.23 821.82,1015.23 C 821.82,1015.23 821.82,1015.22 821.82,1015.22 C 821.82,1015.22 821.82,1015.21 821.82,1015.21 C 821.81,1015.21 821.81,1015.20 821.81,1015.20 C 821.81,1015.20 821.81,1015.19 821.81,1015.19 C 821.81,1015.19 821.81,1015.18 821.81,1015.18 C 821.81,1015.18 821.81,1015.17 821.80,1015.17 C 821.80,1015.17 821.80,1015.16 821.80,1015.16 C 821.80,1015.16 821.80,1015.15 821.80,1015.15 C 821.80,1015.15 821.80,1015.15 821.80,1015.14 C 821.80,1015.14 821.80,1015.14 821.80,1015.13 C 821.80,1015.13 821.80,1015.13 821.80,1015.12 C 821.80,1015.12 821.80,1015.12 821.80,1015.12 C 821.80,1015.11 821.80,1015.11 821.80,1015.11 C 821.80,1015.10 821.80,1015.10 821.80,1015.10 C 821.80,1015.10 821.80,1015.09 821.80,1015.09 C 821.80,1015.09 821.80,1015.09 821.80,1015.08 C 821.80,1015.08 821.80,1015.08 821.80,1015.07 C 821.80,1015.07 821.80,1015.07 821.80,1015.07 C 821.80,1015.06 821.80,1015.06 821.80,1015.06 C 821.80,1015.06 821.80,1015.05 821.80,1015.05 C 821.80,1015.05 821.80,1015.05 821.80,1015.05 C 821.81,1015.04 821.81,1015.04 821.81,1015.04 C 821.81,1015.04 821.81,1015.03 821.81,1015.03 C 821.81,1015.03 821.81,1015.03 821.81,1015.03 C 821.81,1015.02 821.81,1015.02 821.81,1015.02 C 821.82,1015.02 821.82,1015.01 821.82,1015.01 C 821.82,1015.01 821.82,1015.01 821.82,1015.01 C 821.82,1015.00 821.82,1015.00 821.82,1015.00 C 821.82,1015.00 821.83,1015.00 821.83,1015.00 C 821.83,1014.99 821.83,1014.99 821.83,1014.99 C 821.83,1014.99 821.83,1014.99 821.83,1014.98 C 821.84,1014.98 821.84,1014.98 821.84,1014.98 C 821.84,1014.98 821.84,1014.98 821.84,1014.97 C 821.84,1014.97 821.85,1014.97 821.85,1014.97 C 821.85,1014.97 821.85,1014.97 821.85,1014.96 C 821.85,1014.96 821.85,1014.96 821.86,1014.96 C 821.86,1014.96 821.86,1014.96 821.86,1014.96 C 821.86,1014.95 821.86,1014.95 821.87,1014.95 C 821.87,1014.95 821.87,1014.95 821.87,1014.95 C 821.87,1014.95 821.87,1014.95 821.88,1014.94 C 821.88,1014.94 821.88,1014.94 821.88,1014.94 C 821.88,1014.94 821.88,1014.94 821.89,1014.94 C 821.89,1014.94 821.89,1014.94 821.89,1014.93 C 821.89,1014.93 821.90,1014.93 821.90,1014.93 C 821.90,1014.93 821.90,1014.93 821.90,1014.93 C 821.91,1014.93 821.91,1014.93 821.91,1014.93 C 821.91,1014.93 821.91,1014.92 821.92,1014.92 C 821.92,1014.92 821.92,1014.92 821.92,1014.92 C 821.92,1014.92 821.93,1014.92 821.93,1014.92 C 821.93,1014.92 821.93,1014.92 821.93,1014.92 C 821.94,1014.92 821.94,1014.92 821.94,1014.92 C 821.94,1014.91 821.94,1014.91 821.95,1014.91 C 821.95,1014.91 821.95,1014.91 821.95,1014.91 C 821.95,1014.91 821.96,1014.91 821.96,1014.91 C 821.96,1014.91 821.96,1014.91 821.96,1014.91 C 821.97,1014.91 821.97,1014.91 821.97,1014.91 C 821.97,1014.91 821.98,1014.91 821.98,1014.91 C 821.98,1014.91 821.98,1014.91 821.98,1014.91 C 821.99,1014.91 821.99,1014.91 821.99,1014.91 C 821.99,1014.91 821.99,1014.91 822.00,1014.91 C 822.00,1014.91 822.00,1014.91 822.00,1014.91 C 822.01,1014.91 822.01,1014.91 822.01,1014.91 C 822.01,1014.91 822.01,1014.91 822.02,1014.91 C 822.02,1014.91 822.02,1014.91 822.02,1014.91 C 822.02,1014.91 822.03,1014.91 822.03,1014.91 C 822.03,1014.91 822.03,1014.91 822.04,1014.91 C 822.04,1014.91 822.04,1014.91 822.04,1014.91 C 822.04,1014.91 822.05,1014.91 822.05,1014.91 C 822.05,1014.91 822.05,1014.91 822.05,1014.91 C 822.06,1014.91 822.06,1014.91 822.06,1014.92 C 822.06,1014.92 822.06,1014.92 822.07,1014.92 C 822.07,1014.92 822.07,1014.92 822.07,1014.92 C 822.07,1014.92 822.08,1014.92 822.08,1014.92 C 822.08,1014.92 822.08,1014.92 822.08,1014.92 C 822.09,1014.92 822.09,1014.93 822.09,1014.93 C 822.09,1014.93 822.09,1014.93 822.10,1014.93 C 822.10,1014.93 822.10,1014.93 822.10,1014.93 C 822.10,1014.93 822.11,1014.93 822.11,1014.93 C 822.11,1014.94 822.11,1014.94 822.11,1014.94 C 822.12,1014.94 822.12,1014.94 822.12,1014.94 C 822.12,1014.94 822.12,1014.94 822.12,1014.94 C 822.13,1014.95 822.13,1014.95 822.13,1014.95 C 822.13,1014.95 822.13,1014.95 822.13,1014.95 C 822.14,1014.95 822.14,1014.95 822.14,1014.96 C 822.14,1014.96 822.14,1014.96 822.14,1014.96 C 822.15,1014.96 822.15,1014.96 822.15,1014.96 C 822.15,1014.97 822.15,1014.97 822.15,1014.97 C 822.15,1014.97 822.16,1014.97 822.16,1014.97 C 822.16,1014.98 822.16,1014.98 822.16,1014.98 C 822.16,1014.98 822.16,1014.98 822.17,1014.98 C 822.17,1014.99 822.17,1014.99 822.17,1014.99 C 822.17,1014.99 822.17,1014.99 822.17,1015.00 C 822.17,1015.00 822.18,1015.00 822.18,1015.00 C 822.18,1015.00 822.18,1015.00 822.18,1015.01 C 822.18,1015.01 822.18,1015.01 822.18,1015.01 C 822.18,1015.01 822.18,1015.02 822.19,1015.02 C 822.19,1015.02 822.19,1015.02 822.19,1015.03 C 822.19,1015.03 822.19,1015.03 822.19,1015.03 C 822.19,1015.03 822.19,1015.04 822.19,1015.04 C 822.19,1015.04 822.19,1015.04 822.20,1015.05 C 822.20,1015.05 822.20,1015.05 822.20,1015.05 C 822.20,1015.05 822.20,1015.06 822.20,1015.06 C 822.20,1015.06 822.20,1015.06 822.20,1015.07 C 822.20,1015.07 822.20,1015.07 822.20,1015.07 C 822.20,1015.08 822.20,1015.08 822.20,1015.08 C 822.20,1015.09 822.20,1015.09 822.20,1015.09 C 822.20,1015.09 822.20,1015.10 822.20,1015.10 C 822.20,1015.10 822.20,1015.10 822.20,1015.11 C 822.20,1015.11 822.20,1015.11 822.20,1015.12 C 822.20,1015.12 822.20,1015.12 822.20,1015.12 C 822.20,1015.13 822.20,1015.13 822.20,1015.13 C 822.20,1015.14 822.20,1015.14 822.20,1015.14 C 822.20,1015.15 822.20,1015.15 822.20,1015.15 C 822.20,1015.15 822.20,1015.16 822.20,1015.16 C 822.20,1015.16 822.20,1015.17 822.20,1015.17 C 822.19,1015.17 822.19,1015.18 822.19,1015.18 C 822.19,1015.18 822.19,1015.19 822.19,1015.19 C 822.19,1015.19 822.19,1015.20 822.19,1015.20 C 822.19,1015.20 822.19,1015.21 822.18,1015.21 C 822.18,1015.21 822.18,1015.22 822.18,1015.22 C 822.18,1015.22 822.18,1015.23 822.18,1015.23 C 822.18,1015.23 822.17,1015.24 822.17,1015.24 C 822.17,1015.25 822.17,1015.25 822.17,1015.25 C 822.17,1015.26 822.16,1015.26 822.16,1015.26 C 822.16,1015.27 822.16,1015.27 822.16,1015.28 C 822.16,1015.28 822.15,1015.28 822.15,1015.29 C 822.15,1015.29 822.15,1015.29 822.15,1015.30  Z" fill="#000000"/></svg>