<svg xmlns="http://www.w3.org/2000/svg" viewBox="0 0 1024 1024">
  <defs><mask id="gc"><rect width="1024" height="1024" fill="#fff"/>
    <g fill="#000" stroke="#000" stroke-width="18" stroke-linejoin="round"><path d="M 527,301 C 526,301 525,301 525,301 C 524,301 523,301 522,301 C 521,301 521,301 520,301 C 519,301 518,300 517,300 C 517,300 516,300 515,300 C 514,300 514,299 513,299 C 512,299 511,299 510,298 C 510,298 509,298 508,297 C 507,297 507,297 506,297 C 505,296 504,296 504,296 C 503,295 502,295 502,294 C 501,294 500,294 500,293 C 499,293 498,292 497,292 C 497,292 496,291 495,291 C 495,290 494,290 494,289 C 493,289 492,288 492,288 C 491,287 490,287 490,286 C 489,286 489,285 488,284 C 488,284 487,283 486,283 C 486,282 485,281 485,281 C 484,280 484,280 483,279 C 483,278 482,278 482,277 C 481,276 481,276 481,275 C 480,274 480,274 479,273 C 479,272 479,271 478,271 C 478,270 477,269 477,269 C 477,268 477,267 476,266 C 476,266 476,265 475,264 C 475,263 475,263 475,262 C 475,261 474,260 474,259 C 474,259 474,258 474,257 C 474,256 474,256 474,255 C 473,254 473,253 473,252 C 473,252 473,251 473,250 C 473,249 473,248 473,248 C 474,247 474,246 474,245 C 474,244 474,244 474,243 C 474,242 474,241 475,240 C 475,240 475,239 475,238 C 475,237 476,237 476,236 C 476,235 476,234 477,233 C 477,233 477,232 477,231 C 478,230 478,230 478,229 C 479,228 479,227 479,227 C 480,226 480,225 481,225 C 481,224 481,223 482,222 C 482,222 483,221 483,220 C 484,220 484,219 485,218 C 485,218 486,217 486,217 C 487,216 487,215 488,215 C 488,214 489,214 489,213 C 490,213 490,212 491,212 C 492,211 492,210 493,210 C 494,209 494,209 495,209 C 496,208 496,208 497,207 C 498,207 498,206 499,206 C 500,206 500,205 501,205 C 502,204 502,204 503,204 C 504,203 505,203 505,203 C 506,203 507,202 508,202 C 508,202 509,202 510,201 C 511,201 512,201 512,201 C 513,200 514,200 515,200 C 515,200 516,200 517,200 C 518,200 519,200 519,199 C 520,199 521,199 522,199 C 523,199 523,199 524,199 C 525,199 526,199 527,199 C 528,199 528,199 529,199 C 530,199 531,199 532,199 C 532,200 533,200 534,200 C 535,200 536,200 536,200 C 537,200 538,201 539,201 C 539,201 540,201 541,201 C 542,202 543,202 543,202 C 544,202 545,203 546,203 C 546,203 547,204 548,204 C 548,204 549,205 550,205 C 550,206 551,206 552,206 C 553,207 553,207 554,208 C 554,208 555,209 556,209 C 556,210 557,210 558,211 C 558,211 559,212 559,212 C 560,213 561,214 561,214 C 562,215 562,215 563,216 C 563,216 564,217 564,218 C 565,218 565,219 566,220 C 566,220 567,221 567,222 C 568,222 568,223 569,224 C 569,224 569,225 570,226 C 570,226 571,227 571,228 C 571,228 572,229 572,230 C 572,231 573,231 573,232 C 573,233 573,234 574,234 C 574,235 574,236 574,237 C 575,237 575,238 575,239 C 575,240 575,241 576,241 C 576,242 576,243 576,244 C 576,244 576,245 576,246 C 576,247 576,248 576,248 C 577,249 577,250 577,251 C 576,252 576,252 576,253 C 576,254 576,255 576,256 C 576,256 576,257 576,258 C 576,259 576,260 575,260 C 575,261 575,262 575,263 C 575,263 574,264 574,265 C 574,266 574,267 573,267 C 573,268 573,269 572,269 C 572,270 572,271 571,272 C 571,272 570,273 570,274 C 570,274 569,275 569,276 C 568,277 568,277 568,278 C 567,279 567,279 566,280 C 566,280 565,281 565,282 C 564,282 564,283 563,284 C 562,284 562,285 561,285 C 561,286 560,286 560,287 C 559,288 558,288 558,289 C 557,289 557,290 556,290 C 555,291 555,291 554,292 C 553,292 553,293 552,293 C 551,293 551,294 550,294 C 549,295 549,295 548,295 C 547,296 546,296 546,296 C 545,297 544,297 543,297 C 543,298 542,298 541,298 C 540,298 540,299 539,299 C 538,299 537,299 537,300 C 536,300 535,300 534,300 C 533,300 533,300 532,300 C 531,301 530,301 529,301 C 529,301 528,301 527,301  Z"/><path d="M 490,674 C 485,674 481,673 476,670 C 472,668 469,664 467,660 C 465,656 464,651 463,646 C 462,642 462,637 461,632 C 460,628 460,623 459,618 C 458,614 457,609 456,604 C 455,600 455,595 454,590 C 453,586 451,581 450,576 C 449,572 447,567 446,563 C 444,558 441,554 439,550 C 435,547 432,544 428,541 C 424,538 421,536 420,541 C 420,546 419,550 419,555 C 418,560 417,565 416,569 C 416,574 415,579 414,583 C 413,588 413,593 413,597 C 411,602 411,607 411,612 C 410,616 407,617 403,614 C 399,611 396,608 392,605 C 388,602 385,598 382,595 C 378,592 374,589 371,585 C 368,582 364,579 362,574 C 361,570 359,565 358,561 C 357,556 355,552 354,547 C 352,543 351,538 349,534 C 348,529 346,524 345,520 C 343,515 342,511 340,506 C 339,502 337,497 336,493 C 335,488 333,484 332,479 C 331,474 330,470 329,465 C 328,460 328,456 328,451 C 327,446 327,441 328,437 C 327,432 328,427 327,422 C 329,418 329,413 329,408 C 330,403 331,399 332,394 C 334,390 335,385 336,381 C 338,376 339,372 341,367 C 343,363 345,358 347,354 C 350,350 352,346 354,342 C 357,338 360,334 362,330 C 365,326 368,322 371,319 C 374,315 378,312 381,308 C 385,305 388,302 392,299 C 396,296 399,293 403,290 C 407,287 411,285 415,282 C 420,281 424,279 429,277 C 433,276 438,275 443,274 C 447,274 452,274 457,275 C 461,276 466,278 470,280 C 474,283 478,286 480,290 C 483,294 486,298 488,302 C 490,306 492,310 495,314 C 497,319 499,323 502,327 C 504,331 506,336 508,340 C 511,344 513,348 515,353 C 517,357 520,361 522,365 C 524,369 528,372 533,372 C 537,373 542,374 547,374 C 551,375 556,376 561,376 C 565,377 570,378 575,379 C 580,379 584,379 589,380 C 594,381 598,382 603,384 C 607,386 611,389 614,393 C 617,397 618,401 620,405 C 624,408 627,411 630,415 C 632,419 634,424 635,429 C 635,433 635,438 635,443 C 635,448 635,453 635,457 C 635,462 635,467 635,472 C 635,477 635,481 635,486 C 635,491 635,496 635,501 C 635,505 635,510 635,515 C 635,520 635,525 635,529 C 635,534 635,539 635,544 C 635,549 635,554 635,558 C 635,563 635,568 635,573 C 635,578 635,582 634,587 C 634,592 635,597 633,601 C 629,604 626,608 622,611 C 619,614 617,613 616,608 C 617,603 617,598 617,593 C 617,589 617,584 617,579 C 617,574 617,569 617,564 C 617,560 617,555 617,550 C 617,545 617,540 617,536 C 617,531 617,526 617,521 C 617,516 617,512 617,507 C 617,502 617,497 617,492 C 617,488 617,483 617,478 C 617,473 617,468 617,464 C 617,459 617,454 617,449 C 616,444 616,440 617,435 C 616,430 614,426 611,422 C 608,419 603,417 599,415 C 594,416 590,418 586,420 C 583,424 580,428 579,433 C 579,437 578,442 575,446 C 571,448 566,448 563,446 C 561,441 560,437 560,432 C 561,427 563,423 565,419 C 564,416 559,417 554,416 C 549,417 544,416 540,416 C 535,415 530,416 525,415 C 521,416 516,414 511,414 C 507,413 502,411 498,408 C 495,405 492,402 489,398 C 486,394 483,390 480,386 C 477,383 474,379 471,375 C 469,371 465,368 462,371 C 460,376 458,380 456,384 C 453,389 452,393 450,398 C 449,402 447,407 446,411 C 445,416 444,421 443,425 C 443,430 442,435 442,439 C 443,444 444,449 447,453 C 450,456 454,459 457,463 C 461,466 464,469 468,472 C 472,475 475,478 479,481 C 483,484 486,488 489,491 C 492,495 494,499 497,503 C 498,508 500,512 501,517 C 502,522 503,526 503,531 C 504,536 504,541 505,545 C 506,550 506,555 507,559 C 507,564 508,569 507,574 C 508,578 509,583 509,588 C 510,593 510,597 510,602 C 511,607 511,612 511,616 C 512,621 511,626 512,631 C 513,635 513,640 513,645 C 514,650 513,654 512,659 C 510,663 507,667 504,670 C 499,672 495,673 490,674  Z"/></g></mask></defs>
  <g fill="#C97C5D" mask="url(#gc)"><path d="M 487,854 C 483,855 480,854 476,855 C 473,854 469,855 466,854 C 462,855 459,855 455,854 C 452,854 448,855 444,855 C 441,854 438,854 434,855 C 431,855 427,855 424,855 C 420,854 416,854 413,854 C 409,855 406,855 402,854 C 399,854 396,854 392,853 C 389,852 386,850 384,847 C 383,843 383,840 382,836 C 383,833 383,829 383,826 C 382,822 382,819 383,815 C 382,812 381,808 382,805 C 381,801 380,798 379,795 C 378,791 377,788 375,785 C 373,782 371,779 369,776 C 367,774 365,771 362,769 C 360,766 357,764 354,761 C 352,759 349,757 346,755 C 344,752 341,750 338,748 C 335,746 333,744 330,741 C 327,739 325,737 322,735 C 319,733 316,731 314,728 C 311,726 308,724 305,722 C 303,720 300,717 297,715 C 294,713 292,711 289,709 C 286,706 284,704 281,702 C 278,700 276,697 273,695 C 271,692 268,690 266,687 C 263,685 261,682 258,680 C 256,677 253,675 251,672 C 249,669 247,667 245,664 C 243,661 241,658 238,656 C 237,652 235,649 234,646 C 232,643 231,640 229,637 C 228,633 227,630 226,627 C 224,624 223,620 222,617 C 221,614 220,610 219,607 C 218,604 217,600 216,597 C 215,594 214,590 214,587 C 213,583 212,580 211,577 C 211,573 210,570 209,566 C 209,563 208,560 207,556 C 207,553 206,549 206,546 C 205,542 204,539 204,536 C 203,532 203,529 202,525 C 201,522 201,518 200,515 C 200,511 200,508 199,505 C 199,501 199,498 198,494 C 197,491 198,487 197,484 C 197,480 196,477 196,474 C 195,470 195,467 194,463 C 195,460 195,456 197,453 C 198,450 201,448 205,447 C 208,447 212,448 215,449 C 218,451 221,453 223,456 C 225,459 227,462 228,465 C 230,468 231,471 232,475 C 233,478 234,481 236,484 C 237,488 238,491 239,494 C 240,498 241,501 242,504 C 243,508 245,511 246,514 C 247,518 248,521 249,524 C 250,528 251,531 252,534 C 253,538 255,541 256,544 C 257,547 258,551 259,554 C 260,557 262,561 263,564 C 264,567 266,570 267,574 C 268,577 270,580 271,583 C 273,586 274,589 276,593 C 278,596 280,599 281,602 C 283,605 285,608 287,610 C 289,613 291,616 294,618 C 296,621 298,624 301,626 C 304,628 306,631 309,633 C 312,635 315,637 318,639 C 321,641 323,643 326,645 C 329,647 332,648 335,650 C 338,652 341,654 344,656 C 347,657 350,659 353,660 C 351,657 349,654 346,652 C 344,649 342,646 339,644 C 337,641 335,638 332,636 C 330,633 328,630 325,628 C 323,625 320,623 318,620 C 316,617 313,615 311,612 C 309,609 307,607 305,604 C 302,602 300,599 298,596 C 296,593 294,590 292,587 C 290,584 288,582 286,578 C 285,575 283,572 282,569 C 281,565 281,562 280,559 C 281,555 282,552 284,549 C 286,546 289,544 292,543 C 296,543 299,542 303,543 C 306,544 309,546 312,548 C 315,550 318,552 320,555 C 323,557 325,560 328,562 C 330,565 333,567 335,569 C 337,572 340,574 342,577 C 345,579 347,582 350,584 C 352,587 355,589 357,592 C 360,594 363,597 365,599 C 368,601 371,603 373,606 C 376,608 379,610 382,612 C 385,614 387,616 390,618 C 393,620 396,622 398,624 C 401,627 404,629 407,631 C 410,633 413,635 415,637 C 418,639 421,641 424,643 C 427,645 429,648 432,650 C 434,653 437,655 439,657 C 441,660 444,662 446,665 C 449,667 451,670 453,673 C 456,675 458,678 460,681 C 462,684 464,687 466,690 C 467,693 469,696 471,699 C 472,702 474,705 475,708 C 476,712 478,715 479,718 C 480,722 481,725 481,728 C 482,732 483,735 484,739 C 484,742 485,746 485,749 C 485,752 486,756 487,759 C 487,763 487,766 487,770 C 488,773 488,777 488,780 C 488,784 488,787 488,791 C 487,794 487,798 487,801 C 487,805 488,808 488,812 C 488,816 488,819 488,823 C 488,826 488,830 488,833 C 488,837 488,840 487,844 C 487,847 487,851 487,854  Z"/><path d="M 620,854 C 616,854 613,855 609,854 C 606,855 602,855 599,854 C 595,854 592,855 588,854 C 585,854 582,854 578,854 C 575,855 571,854 568,854 C 564,855 561,855 557,854 C 554,854 550,854 547,855 C 543,854 540,855 536,854 C 535,851 535,848 536,844 C 536,841 536,837 536,834 C 536,830 536,827 536,823 C 536,820 536,816 536,813 C 535,809 535,806 536,802 C 536,798 536,795 536,791 C 536,788 536,784 536,781 C 536,777 536,774 535,770 C 535,767 536,763 536,760 C 537,757 537,753 537,750 C 538,746 538,743 539,739 C 540,736 540,733 541,729 C 542,726 543,723 544,719 C 545,716 546,713 548,709 C 549,706 551,703 552,700 C 554,697 555,694 557,691 C 559,688 561,685 563,682 C 565,679 567,676 569,674 C 571,671 573,668 576,666 C 578,663 581,661 583,658 C 586,656 588,653 591,651 C 594,648 596,646 599,644 C 602,642 604,639 607,637 C 610,635 613,633 616,631 C 618,630 621,628 624,626 C 627,624 630,622 633,620 C 636,617 638,615 641,613 C 644,611 647,609 649,607 C 652,605 655,602 657,600 C 660,598 662,595 665,593 C 668,591 670,588 673,586 C 675,583 678,581 680,578 C 683,576 685,573 688,571 C 690,568 693,566 695,563 C 698,561 700,559 702,556 C 705,554 707,551 710,549 C 713,547 716,545 719,543 C 722,543 726,542 729,543 C 733,543 736,545 738,548 C 741,550 742,553 743,557 C 743,560 743,564 742,567 C 741,571 740,574 738,577 C 737,580 735,583 733,586 C 731,589 729,592 727,595 C 725,598 723,600 721,603 C 718,606 716,608 714,611 C 712,614 709,616 707,619 C 705,622 702,624 700,627 C 698,630 696,632 694,635 C 691,637 689,640 686,642 C 684,645 682,648 679,650 C 677,653 675,656 673,658 C 675,658 678,656 681,655 C 685,653 687,651 690,649 C 693,647 696,646 699,644 C 702,642 705,640 708,638 C 711,636 714,634 716,631 C 719,629 722,627 724,624 C 727,622 729,620 731,617 C 733,614 736,612 738,609 C 740,606 742,603 744,600 C 745,597 747,594 749,591 C 750,588 752,585 754,581 C 755,578 756,575 758,572 C 759,569 761,566 762,562 C 763,559 764,556 765,552 C 766,549 767,546 769,542 C 770,539 771,536 772,533 C 773,529 774,526 775,523 C 777,519 778,516 779,513 C 780,510 781,506 783,503 C 784,500 785,496 786,493 C 787,490 788,487 789,483 C 790,480 791,477 792,473 C 794,470 795,467 796,464 C 798,460 800,457 802,455 C 804,452 807,450 810,449 C 814,448 817,447 821,448 C 824,449 826,452 828,455 C 829,458 829,462 828,465 C 828,469 828,472 827,476 C 826,479 827,483 826,486 C 826,489 825,493 824,496 C 824,500 824,503 824,507 C 823,510 823,513 822,517 C 822,520 821,524 820,527 C 820,531 819,534 819,537 C 818,541 818,544 817,548 C 816,551 816,554 815,558 C 814,561 814,565 813,568 C 812,571 812,575 811,578 C 810,582 809,585 809,588 C 808,592 807,595 806,598 C 805,602 804,605 803,609 C 802,612 801,615 800,618 C 799,622 798,625 797,628 C 796,632 794,635 793,638 C 792,641 790,644 788,648 C 787,651 785,654 783,657 C 782,660 779,663 777,665 C 775,668 773,671 771,673 C 768,676 766,679 764,681 C 762,684 759,686 757,689 C 754,691 751,694 749,696 C 746,698 744,701 741,703 C 738,705 736,708 733,710 C 731,712 728,714 725,716 C 722,719 720,721 717,723 C 714,725 711,727 709,729 C 706,732 703,734 701,736 C 698,738 695,740 692,742 C 689,744 687,747 684,749 C 681,751 679,753 676,755 C 673,757 671,760 668,762 C 665,764 663,767 660,769 C 658,772 655,774 653,777 C 651,780 649,783 647,786 C 646,789 645,792 643,795 C 643,799 642,802 642,805 C 641,809 640,812 641,816 C 641,819 641,823 640,826 C 640,830 641,833 641,837 C 640,840 640,844 639,847 C 637,850 634,852 630,853 C 627,854 624,853 620,854  Z"/></g><g fill="#6B4F4F"><path d="M 527,301 C 526,301 525,301 525,301 C 524,301 523,301 522,301 C 521,301 521,301 520,301 C 519,301 518,300 517,300 C 517,300 516,300 515,300 C 514,300 514,299 513,299 C 512,299 511,299 510,298 C 510,298 509,298 508,297 C 507,297 507,297 506,297 C 505,296 504,296 504,296 C 503,295 502,295 502,294 C 501,294 500,294 500,293 C 499,293 498,292 497,292 C 497,292 496,291 495,291 C 495,290 494,290 494,289 C 493,289 492,288 492,288 C 491,287 490,287 490,286 C 489,286 489,285 488,284 C 488,284 487,283 486,283 C 486,282 485,281 485,281 C 484,280 484,280 483,279 C 483,278 482,278 482,277 C 481,276 481,276 481,275 C 480,274 480,274 479,273 C 479,272 479,271 478,271 C 478,270 477,269 477,269 C 477,268 477,267 476,266 C 476,266 476,265 475,264 C 475,263 475,263 475,262 C 475,261 474,260 474,259 C 474,259 474,258 474,257 C 474,256 474,256 474,255 C 473,254 473,253 473,252 C 473,252 473,251 473,250 C 473,249 473,248 473,248 C 474,247 474,246 474,245 C 474,244 474,244 474,243 C 474,242 474,241 475,240 C 475,240 475,239 475,238 C 475,237 476,237 476,236 C 476,235 476,234 477,233 C 477,233 477,232 477,231 C 478,230 478,230 478,229 C 479,228 479,227 479,227 C 480,226 480,225 481,225 C 481,224 481,223 482,222 C 482,222 483,221 483,220 C 484,220 484,219 485,218 C 485,218 486,217 486,217 C 487,216 487,215 488,215 C 488,214 489,214 489,213 C 490,213 490,212 491,212 C 492,211 492,210 493,210 C 494,209 494,209 495,209 C 496,208 496,208 497,207 C 498,207 498,206 499,206 C 500,206 500,205 501,205 C 502,204 502,204 503,204 C 504,203 505,203 505,203 C 506,203 507,202 508,202 C 508,202 509,202 510,201 C 511,201 512,201 512,201 C 513,200 514,200 515,200 C 515,200 516,200 517,200 C 518,200 519,200 519,199 C 520,199 521,199 522,199 C 523,199 523,199 524,199 C 525,199 526,199 527,199 C 528,199 528,199 529,199 C 530,199 531,199 532,199 C 532,200 533,200 534,200 C 535,200 536,200 536,200 C 537,200 538,201 539,201 C 539,201 540,201 541,201 C 542,202 543,202 543,202 C 544,202 545,203 546,203 C 546,203 547,204 548,204 C 548,204 549,205 550,205 C 550,206 551,206 552,206 C 553,207 553,207 554,208 C 554,208 555,209 556,209 C 556,210 557,210 558,211 C 558,211 559,212 559,212 C 560,213 561,214 561,214 C 562,215 562,215 563,216 C 563,216 564,217 564,218 C 565,218 565,219 566,220 C 566,220 567,221 567,222 C 568,222 568,223 569,224 C 569,224 569,225 570,226 C 570,226 571,227 571,228 C 571,228 572,229 572,230 C 572,231 573,231 573,232 C 573,233 573,234 574,234 C 574,235 574,236 574,237 C 575,237 575,238 575,239 C 575,240 575,241 576,241 C 576,242 576,243 576,244 C 576,244 576,245 576,246 C 576,247 576,248 576,248 C 577,249 577,250 577,251 C 576,252 576,252 576,253 C 576,254 576,255 576,256 C 576,256 576,257 576,258 C 576,259 576,260 575,260 C 575,261 575,262 575,263 C 575,263 574,264 574,265 C 574,266 574,267 573,267 C 573,268 573,269 572,269 C 572,270 572,271 571,272 C 571,272 570,273 570,274 C 570,274 569,275 569,276 C 568,277 568,277 568,278 C 567,279 567,279 566,280 C 566,280 565,281 565,282 C 564,282 564,283 563,284 C 562,284 562,285 561,285 C 561,286 560,286 560,287 C 559,288 558,288 558,289 C 557,289 557,290 556,290 C 555,291 555,291 554,292 C 553,292 553,293 552,293 C 551,293 551,294 550,294 C 549,295 549,295 548,295 C 547,296 546,296 546,296 C 545,297 544,297 543,297 C 543,298 542,298 541,298 C 540,298 540,299 539,299 C 538,299 537,299 537,300 C 536,300 535,300 534,300 C 533,300 533,300 532,300 C 531,301 530,301 529,301 C 529,301 528,301 527,301  Z"/><path d="M 490,674 C 485,674 481,673 476,670 C 472,668 469,664 467,660 C 465,656 464,651 463,646 C 462,642 462,637 461,632 C 460,628 460,623 459,618 C 458,614 457,609 456,604 C 455,600 455,595 454,590 C 453,586 451,581 450,576 C 449,572 447,567 446,563 C 444,558 441,554 439,550 C 435,547 432,544 428,541 C 424,538 421,536 420,541 C 420,546 419,550 419,555 C 418,560 417,565 416,569 C 416,574 415,579 414,583 C 413,588 413,593 413,597 C 411,602 411,607 411,612 C 410,616 407,617 403,614 C 399,611 396,608 392,605 C 388,602 385,598 382,595 C 378,592 374,589 371,585 C 368,582 364,579 362,574 C 361,570 359,565 358,561 C 357,556 355,552 354,547 C 352,543 351,538 349,534 C 348,529 346,524 345,520 C 343,515 342,511 340,506 C 339,502 337,497 336,493 C 335,488 333,484 332,479 C 331,474 330,470 329,465 C 328,460 328,456 328,451 C 327,446 327,441 328,437 C 327,432 328,427 327,422 C 329,418 329,413 329,408 C 330,403 331,399 332,394 C 334,390 335,385 336,381 C 338,376 339,372 341,367 C 343,363 345,358 347,354 C 350,350 352,346 354,342 C 357,338 360,334 362,330 C 365,326 368,322 371,319 C 374,315 378,312 381,308 C 385,305 388,302 392,299 C 396,296 399,293 403,290 C 407,287 411,285 415,282 C 420,281 424,279 429,277 C 433,276 438,275 443,274 C 447,274 452,274 457,275 C 461,276 466,278 470,280 C 474,283 478,286 480,290 C 483,294 486,298 488,302 C 490,306 492,310 495,314 C 497,319 499,323 502,327 C 504,331 506,336 508,340 C 511,344 513,348 515,353 C 517,357 520,361 522,365 C 524,369 528,372 533,372 C 537,373 542,374 547,374 C 551,375 556,376 561,376 C 565,377 570,378 575,379 C 580,379 584,379 589,380 C 594,381 598,382 603,384 C 607,386 611,389 614,393 C 617,397 618,401 620,405 C 624,408 627,411 630,415 C 632,419 634,424 635,429 C 635,433 635,438 635,443 C 635,448 635,453 635,457 C 635,462 635,467 635,472 C 635,477 635,481 635,486 C 635,491 635,496 635,501 C 635,505 635,510 635,515 C 635,520 635,525 635,529 C 635,534 635,539 635,544 C 635,549 635,554 635,558 C 635,563 635,568 635,573 C 635,578 635,582 634,587 C 634,592 635,597 633,601 C 629,604 626,608 622,611 C 619,614 617,613 616,608 C 617,603 617,598 617,593 C 617,589 617,584 617,579 C 617,574 617,569 617,564 C 617,560 617,555 617,550 C 617,545 617,540 617,536 C 617,531 617,526 617,521 C 617,516 617,512 617,507 C 617,502 617,497 617,492 C 617,488 617,483 617,478 C 617,473 617,468 617,464 C 617,459 617,454 617,449 C 616,444 616,440 617,435 C 616,430 614,426 611,422 C 608,419 603,417 599,415 C 594,416 590,418 586,420 C 583,424 580,428 579,433 C 579,437 578,442 575,446 C 571,448 566,448 563,446 C 561,441 560,437 560,432 C 561,427 563,423 565,419 C 564,416 559,417 554,416 C 549,417 544,416 540,416 C 535,415 530,416 525,415 C 521,416 516,414 511,414 C 507,413 502,411 498,408 C 495,405 492,402 489,398 C 486,394 483,390 480,386 C 477,383 474,379 471,375 C 469,371 465,368 462,371 C 460,376 458,380 456,384 C 453,389 452,393 450,398 C 449,402 447,407 446,411 C 445,416 444,421 443,425 C 443,430 442,435 442,439 C 443,444 444,449 447,453 C 450,456 454,459 457,463 C 461,466 464,469 468,472 C 472,475 475,478 479,481 C 483,484 486,488 489,491 C 492,495 494,499 497,503 C 498,508 500,512 501,517 C 502,522 503,526 503,531 C 504,536 504,541 505,545 C 506,550 506,555 507,559 C 507,564 508,569 507,574 C 508,578 509,583 509,588 C 510,593 510,597 510,602 C 511,607 511,612 511,616 C 512,621 511,626 512,631 C 513,635 513,640 513,645 C 514,650 513,654 512,659 C 510,663 507,667 504,670 C 499,672 495,673 490,674  Z"/></g></svg>